<?xml version="1.0" encoding="utf-8"?>
<!-- Generator: Adobe Illustrator 23.0.5, SVG Export Plug-In . SVG Version: 6.00 Build 0)  -->
<svg version="1.1" id="Layer_1" xmlns="http://www.w3.org/2000/svg" xmlns:xlink="http://www.w3.org/1999/xlink" x="0px" y="0px"
	 viewBox="0 0 100 100" style="enable-background:new 0 0 100 100;" xml:space="preserve">
<style type="text/css">
	.st0{fill:#FECE35;}
	.st1{fill:#E5A03E;}
	.st2{fill:#FEFEFE;}
</style>
<g>
	<path class="st0" d="M93,30.82c-0.14,0.05-0.14,0.16-0.17,0.29c-0.42,1.93-1.45,3.51-2.93,4.79c-0.81,0.7-1.78,1.15-2.77,1.57
		c-1.14,0.48-2.27,0.97-3.4,1.46c-1.29,0.56-2.58,1.13-3.87,1.69c-1.17,0.51-2.34,1.01-3.51,1.52c-1.6,0.69-3.19,1.37-4.79,2.07
		c-1.01,0.44-2.01,0.9-3.02,1.35c-0.2,0.09-0.26,0.2-0.28,0.42c-0.08,0.83-0.23,1.66-0.29,2.5c-0.05,0.6-0.11,1.2-0.19,1.79
		c-0.14,1.08-0.2,2.17-0.39,3.25c-0.07,0.38-0.07,0.77-0.1,1.2c0.5-0.23,0.98-0.43,1.44-0.65c0.93-0.44,1.85-0.89,2.77-1.35
		c0.25-0.13,0.39-0.1,0.52,0.19c0.29,0.67,0.63,1.32,0.95,1.97c0.08,0.17,0.15,0.3-0.1,0.41c-1.4,0.66-2.8,1.34-4.2,2.01
		c-0.47,0.22-0.93,0.48-1.41,0.66c-0.44,0.16-0.4,0.52-0.44,0.84c-0.13,1.11-0.22,2.22-0.39,3.33c-0.05,0.35-0.05,0.71-0.13,1.14
		c1.14-0.56,2.22-1.08,3.3-1.6c0.14-0.07,0.3-0.12,0.44-0.2c0.21-0.12,0.3-0.04,0.39,0.16c0.33,0.71,0.66,1.43,1.02,2.12
		c0.14,0.27-0.07,0.26-0.19,0.32c-1.6,0.78-3.2,1.57-4.82,2.33c-0.35,0.17-0.56,0.38-0.58,0.75c-0.05,0.81-0.15,1.62-0.25,2.43
		c-0.1,0.86-0.21,1.72-0.31,2.58c-0.06,0.53-0.13,1.06-0.17,1.59c-0.07,0.89-0.23,1.77-0.3,2.66c-0.07,0.84-0.19,1.67-0.27,2.51
		c-0.08,0.86-0.21,1.72-0.31,2.58c-0.09,0.78-0.17,1.56-0.26,2.34c-0.1,0.9-0.21,1.8-0.31,2.7c-0.09,0.79-0.17,1.59-0.25,2.39
		c-0.03,0.31-0.04,0.61-0.09,0.92c-0.04,0.22-0.13,0.38-0.39,0.48c-1.59,0.59-3.18,1.19-4.76,1.82c-0.66,0.26-1.34,0.47-1.97,0.8
		c-0.11,0-0.22,0-0.32,0c-0.13-0.65-0.28-1.29-0.4-1.94c-0.21-1.09-0.39-2.19-0.59-3.29c-0.26-1.37-0.52-2.73-0.79-4.1
		c-0.26-1.37-0.54-2.73-0.8-4.1c-0.34-1.83-0.65-3.66-0.99-5.48c-0.3-1.6-0.64-3.2-0.95-4.8c-0.29-1.51-0.55-3.03-0.83-4.54
		c-0.23-1.21-0.48-2.42-0.7-3.63c-0.26-1.4-0.5-2.79-0.76-4.19c-0.14-0.77-0.33-1.53-0.46-2.3c-0.05-0.29-0.16-0.26-0.35-0.17
		c-0.46,0.21-0.92,0.41-1.39,0.61c-2.07,0.9-4.14,1.8-6.21,2.7c-1.62,0.71-3.23,1.44-4.85,2.14c-1.56,0.68-3.11,1.37-4.69,2
		c-0.5,0.2-1.05,0.33-1.6,0.28c-0.23-0.02-0.34,0.1-0.49,0.26c-0.63,0.68-0.72,1.54-0.87,2.39c-0.27,1.5-0.51,3.01-0.79,4.51
		c-0.37,1.97-0.66,3.95-0.99,5.93c-0.11,0.63-0.26,1.25-0.33,1.88c-0.02,0.2-0.14,0.32-0.34,0.42c-0.94,0.43-1.87,0.9-2.8,1.34
		c-0.34,0.16-0.68,0.3-1.01,0.47c-0.18,0.09-0.18,0.03-0.22-0.12c-0.31-1.22-0.63-2.44-0.94-3.65c-0.37-1.42-0.72-2.85-1.09-4.27
		c-0.53-2.08-1.08-4.15-1.59-6.24c-0.06-0.23-0.16-0.31-0.35-0.36c-0.72-0.18-1.44-0.37-2.17-0.52c-0.26-0.05-0.27-0.14-0.19-0.35
		c0.27-0.7,0.51-1.42,0.81-2.12c0.15-0.34,0.1-0.59-0.11-0.86c-2.13-2.85-4.25-5.7-6.38-8.55c-0.72-0.96-1.43-1.93-2.15-2.88
		c-0.07-0.09-0.18-0.16-0.27-0.24c0-0.08,0-0.16,0-0.24c1.32-0.63,2.64-1.26,3.96-1.89c0.14-0.07,0.28-0.08,0.42,0
		c0.74,0.44,1.52,0.82,2.27,1.22c2.16,1.16,4.3,2.34,6.45,3.51c0.9,0.49,1.81,0.95,2.68,1.47c0.57,0.34,1.17,0.46,1.8,0.41
		c0.26-0.02,0.39-0.39,0.57-0.61c0.02-0.03,0.08-0.03,0.1-0.06c0.59-0.61,1.34-1,2.07-1.41c1.67-0.93,3.32-1.9,4.98-2.85
		c1.47-0.83,2.94-1.65,4.41-2.48c2-1.14,3.99-2.28,6.01-3.44c-0.6-0.68-1.21-1.37-1.82-2.06c-0.59-0.67-1.18-1.34-1.77-2.02
		c-0.85-0.98-1.69-1.96-2.54-2.94c-0.63-0.73-1.28-1.44-1.91-2.17c-0.82-0.95-1.63-1.91-2.46-2.85c-0.63-0.73-1.28-1.44-1.91-2.17
		c-0.83-0.96-1.65-1.93-2.49-2.88c-0.62-0.72-1.26-1.42-1.89-2.14c-0.82-0.95-1.63-1.91-2.46-2.85c-0.63-0.73-1.28-1.44-1.91-2.17
		c-0.82-0.94-1.62-1.89-2.44-2.84c-0.74-0.85-1.48-1.7-2.23-2.55c-0.13-0.15-0.11-0.23,0.07-0.34c1.14-0.67,2.29-1.35,3.42-2.03
		c1-0.6,2.03-1.15,2.99-1.81c0.11,0,0.22,0,0.32,0c0.03,0.08,0.09,0.12,0.16,0.17c1.18,0.73,2.35,1.46,3.53,2.19
		c1.62,1,3.23,2,4.85,3.01c1.94,1.2,3.89,2.41,5.83,3.61c1.67,1.03,3.35,2.06,5.03,3.1c0.12,0.07,0.2,0.1,0.33,0.03
		c0.63-0.31,1.27-0.61,1.91-0.92c1.23-0.6,2.47-1.19,3.69-1.8c0.19-0.09,0.26-0.05,0.34,0.11c0.33,0.68,0.64,1.37,0.99,2.04
		c0.15,0.29,0.05,0.4-0.2,0.52c-1.22,0.58-2.44,1.16-3.67,1.74c-0.25,0.12-0.27,0.23-0.02,0.38c1.25,0.77,2.49,1.54,3.73,2.31
		c0.22,0.14,0.44,0.15,0.68,0.03c1.54-0.76,3.09-1.51,4.64-2.25c0.49-0.23,0.99-0.44,1.48-0.66c0.03,0,0.07,0,0.1,0
		c0.17,0.15,0.17,0.38,0.27,0.57c0.31,0.59,0.6,1.19,0.89,1.78c0.07,0.13,0.05,0.18-0.11,0.26c-1.5,0.71-2.99,1.45-4.49,2.17
		c-0.25,0.12-0.09,0.18,0.02,0.25c0.36,0.23,0.73,0.44,1.09,0.66c2.01,1.25,4.03,2.48,6.03,3.75c0.35,0.22,0.59,0.19,0.91,0
		c1.66-0.96,3.32-1.91,4.98-2.86c1.36-0.78,2.72-1.54,4.08-2.31c1.24-0.7,2.48-1.4,3.71-2.11c1.22-0.7,2.44-1.41,3.67-2.11
		c0.77-0.44,1.54-0.9,2.34-1.29c0.84-0.4,1.73-0.63,2.67-0.74c1.29-0.15,2.54-0.02,3.75,0.39c1.49,0.51,2.78,1.36,3.81,2.57
		c0.68,0.8,1.18,1.69,1.56,2.65c0.18,0.45,0.18,0.96,0.47,1.37C93,28.66,93,29.74,93,30.82z M26.29,56.6
		c-0.75-0.03-1.5-0.03-2.25-0.09c-0.59-0.05-1.17-0.11-1.72-0.43c-1.35-0.77-2.73-1.49-4.09-2.23c-1.22-0.66-2.44-1.34-3.67-1.98
		c-0.81-0.42-1.58-0.92-2.43-1.27c-0.02-0.06-0.08-0.09-0.12-0.05c-0.05,0.06,0.04,0.07,0.07,0.1c0.84,1.14,1.68,2.27,2.53,3.39
		c1.47,1.94,2.89,3.92,4.35,5.86c0.42,0.55,0.77,1.05,0.3,1.75c-0.22,0.32-0.1,0.45,0.29,0.48c0.58,0.04,0.97,0.33,1,0.98
		c0.01,0.17,0.05,0.34,0.1,0.51c0.56,2.14,1.12,4.28,1.67,6.42c0.23,0.9,0.42,1.81,0.68,2.7c0.15,0.54,0.22,1.1,0.45,1.62
		c0.15-0.06,0.16-0.16,0.18-0.27c0.27-1.64,0.53-3.27,0.82-4.91c0.34-1.97,0.69-3.95,1.05-5.92c0.07-0.4,0.02-0.84,0.25-1.19
		c0.6-0.91,1.24-1.79,1.86-2.68c0.15-0.21,0.29-0.28,0.59-0.22c0.47,0.09,0.96,0.19,1.47,0.06c0.48-0.12,0.93-0.29,1.38-0.49
		c1.98-0.87,3.97-1.72,5.96-2.58c1.55-0.67,3.09-1.36,4.64-2.03c1.81-0.79,3.63-1.57,5.45-2.36c1.35-0.59,2.7-1.19,4.05-1.78
		c1.61-0.7,3.22-1.39,4.83-2.09c1.32-0.57,2.63-1.15,3.94-1.72c1.79-0.78,3.59-1.55,5.38-2.33c1.36-0.59,2.72-1.2,4.09-1.8
		c1.61-0.7,3.22-1.39,4.83-2.09c1.18-0.52,2.35-1.07,3.54-1.56c1.56-0.64,3.09-1.34,4.64-2.01c1.16-0.5,2.32-1,3.48-1.5
		c1.2-0.51,2.34-1.1,3.13-2.2c1.01-1.4,1.38-2.96,1.05-4.65c-0.28-1.43-1.02-2.6-2.21-3.46c-1.84-1.33-3.83-1.5-5.9-0.62
		c-0.67,0.28-1.28,0.71-1.91,1.07c-1.47,0.83-2.95,1.65-4.42,2.49c-1.72,0.98-3.43,1.97-5.15,2.94c-1.47,0.83-2.95,1.66-4.42,2.49
		c-1.52,0.86-3.03,1.73-4.54,2.59c-1.25,0.71-2.5,1.42-3.75,2.13c-1.49,0.85-2.97,1.7-4.46,2.55c-1.09,0.62-2.18,1.23-3.26,1.85
		c-1.47,0.84-2.93,1.68-4.4,2.52c-1.28,0.73-2.57,1.45-3.86,2.17c-1.49,0.85-2.98,1.7-4.47,2.55c-1.12,0.64-2.24,1.28-3.37,1.9
		c-1.64,0.9-3.25,1.87-4.89,2.79c-0.88,0.49-1.74,1-2.22,1.95c-0.12,0.23-0.18,0.51-0.44,0.66C26.35,56.59,26.32,56.6,26.29,56.6z
		 M58.52,33.79c-1.47-0.91-2.88-1.79-4.29-2.66c-1.93-1.2-3.86-2.39-5.79-3.59c-1.47-0.91-2.93-1.82-4.4-2.73
		c-1.93-1.19-3.87-2.39-5.8-3.58c-1.69-1.05-3.39-2.1-5.08-3.15c-1.78-1.11-3.57-2.21-5.35-3.31c-1.29-0.8-2.57-1.6-3.86-2.4
		c-0.14-0.09-0.26-0.09-0.4,0c-0.5,0.31-1,0.61-1.5,0.91c-0.18,0.11-0.47,0.14-0.53,0.33c-0.08,0.25,0.24,0.33,0.37,0.5
		c0.78,1.01,1.65,1.93,2.48,2.89c0.62,0.72,1.26,1.42,1.89,2.14c0.84,0.97,1.67,1.94,2.51,2.91c0.44,0.51,0.89,1,1.33,1.51
		c0.57,0.66,1.11,1.35,1.7,2c0.53,0.59,1.01,1.23,1.55,1.81c0.67,0.72,1.3,1.47,1.96,2.19c0.64,0.7,1.27,1.42,1.89,2.13
		c1,1.15,1.98,2.31,2.98,3.46c0.67,0.76,1.36,1.51,2.02,2.27c1,1.15,1.98,2.3,2.97,3.45c0.19,0.22,0.35,0.36,0.65,0.13
		c0.23-0.18,0.51-0.29,0.76-0.44c1.37-0.78,2.75-1.56,4.12-2.34c1.62-0.92,3.24-1.84,4.86-2.76C56.51,34.94,57.48,34.38,58.52,33.79
		z M65.21,47.45c-0.49,0.2-0.92,0.38-1.35,0.55c-1.6,0.65-3.2,1.29-4.8,1.94c-1.25,0.51-2.5,1.03-3.76,1.54
		c-1.15,0.47-2.3,0.96-3.47,1.4c-0.41,0.16-0.56,0.3-0.44,0.8c0.29,1.25,0.47,2.53,0.71,3.79c0.19,1.04,0.41,2.08,0.61,3.12
		c0.24,1.26,0.44,2.53,0.71,3.79c0.21,0.99,0.37,1.98,0.57,2.97c0.35,1.69,0.62,3.39,0.93,5.09c0.3,1.63,0.64,3.25,0.94,4.88
		c0.34,1.8,0.66,3.6,0.99,5.4c0.26,1.38,0.53,2.76,0.79,4.14c0.12,0.61,0.21,1.23,0.35,1.84c0.02,0.11-0.01,0.41,0.3,0.28
		c0.7-0.29,1.4-0.58,2.11-0.84c0.13-0.05,0.15-0.11,0.17-0.22c0.1-0.44,0.12-0.9,0.17-1.35c0.09-0.89,0.21-1.77,0.31-2.66
		c0.09-0.79,0.17-1.59,0.26-2.38c0.1-0.87,0.21-1.74,0.31-2.62c0.08-0.65,0.15-1.29,0.22-1.94c0.09-0.79,0.18-1.59,0.26-2.38
		c0.09-0.79,0.17-1.59,0.26-2.38c0.1-0.85,0.21-1.69,0.3-2.54c0.09-0.82,0.13-1.65,0.26-2.46c0.14-0.87,0.18-1.75,0.3-2.62
		c0.09-0.63,0.16-1.27,0.23-1.9c0.09-0.77,0.17-1.54,0.25-2.3c0.06-0.57,0.11-1.14,0.18-1.71c0.1-0.86,0.21-1.72,0.31-2.57
		c0.09-0.83,0.13-1.68,0.26-2.51c0.13-0.87,0.2-1.74,0.31-2.62c0.08-0.61,0.18-1.21,0.22-1.82C65.06,48.6,65.15,48.05,65.21,47.45z"
		/>
	<path class="st1" d="M12.12,50.59c0.85,0.35,1.62,0.85,2.43,1.27c1.24,0.64,2.45,1.32,3.67,1.98c1.37,0.74,2.75,1.46,4.09,2.23
		c0.55,0.31,1.13,0.38,1.72,0.43c0.75,0.06,1.5,0.06,2.25,0.09c0.04,0.08,0.07,0.07,0.1,0c0.26-0.14,0.32-0.42,0.44-0.66
		c0.48-0.95,1.33-1.45,2.22-1.95c1.64-0.91,3.25-1.88,4.89-2.79c1.13-0.62,2.25-1.26,3.37-1.9c1.49-0.85,2.98-1.7,4.47-2.55
		c1.28-0.73,2.57-1.44,3.86-2.17c1.47-0.83,2.93-1.68,4.4-2.52c1.09-0.62,2.18-1.23,3.26-1.85c1.49-0.85,2.97-1.7,4.46-2.55
		c1.25-0.71,2.5-1.42,3.75-2.13c1.51-0.86,3.03-1.73,4.54-2.59c1.47-0.83,2.95-1.65,4.42-2.49c1.72-0.98,3.43-1.97,5.15-2.94
		c1.47-0.83,2.94-1.66,4.42-2.49c0.64-0.36,1.25-0.79,1.91-1.07c2.07-0.88,4.05-0.71,5.9,0.62c1.19,0.86,1.93,2.03,2.21,3.46
		c0.34,1.69-0.04,3.24-1.05,4.65c-0.79,1.1-1.93,1.69-3.13,2.2c-1.16,0.49-2.32,1-3.48,1.5c-1.55,0.66-3.08,1.37-4.64,2.01
		c-1.19,0.49-2.36,1.04-3.54,1.56c-1.61,0.7-3.22,1.39-4.83,2.09c-1.36,0.59-2.72,1.2-4.09,1.8c-1.79,0.78-3.58,1.55-5.38,2.33
		c-1.32,0.57-2.63,1.15-3.94,1.72c-1.61,0.7-3.22,1.39-4.83,2.09c-1.35,0.59-2.7,1.19-4.05,1.78c-1.81,0.79-3.63,1.57-5.45,2.36
		c-1.55,0.67-3.09,1.36-4.64,2.03c-1.99,0.86-3.98,1.71-5.96,2.58c-0.45,0.2-0.9,0.37-1.38,0.49c-0.51,0.13-0.99,0.03-1.47-0.06
		c-0.3-0.06-0.44,0.01-0.59,0.22c-0.62,0.89-1.26,1.78-1.86,2.68c-0.23,0.35-0.18,0.79-0.25,1.19c-0.37,1.97-0.71,3.94-1.05,5.92
		c-0.28,1.63-0.55,3.27-0.82,4.91c-0.02,0.11-0.03,0.21-0.18,0.27c-0.23-0.52-0.3-1.08-0.45-1.62c-0.26-0.89-0.44-1.8-0.68-2.7
		c-0.55-2.14-1.11-4.28-1.67-6.42c-0.04-0.17-0.09-0.34-0.1-0.51c-0.03-0.65-0.42-0.93-1-0.98c-0.39-0.03-0.51-0.16-0.29-0.48
		c0.47-0.69,0.11-1.2-0.3-1.75c-1.46-1.94-2.88-3.92-4.35-5.86c-0.85-1.12-1.7-2.25-2.53-3.39C12.09,50.63,12.1,50.61,12.12,50.59z"
		/>
	<path class="st1" d="M58.52,33.79c-1.03,0.59-2,1.14-2.97,1.69c-1.62,0.92-3.24,1.84-4.86,2.76c-1.37,0.78-2.75,1.56-4.12,2.34
		c-0.25,0.14-0.53,0.26-0.76,0.44c-0.29,0.23-0.46,0.09-0.65-0.13c-0.99-1.15-1.97-2.31-2.97-3.45c-0.67-0.76-1.36-1.51-2.02-2.27
		c-1-1.15-1.98-2.31-2.98-3.46c-0.62-0.72-1.25-1.43-1.89-2.13c-0.66-0.72-1.29-1.48-1.96-2.19c-0.54-0.58-1.02-1.22-1.55-1.81
		c-0.58-0.65-1.13-1.34-1.7-2c-0.44-0.51-0.89-1-1.33-1.51c-0.84-0.97-1.67-1.95-2.51-2.91c-0.62-0.72-1.26-1.42-1.89-2.14
		c-0.83-0.96-1.71-1.88-2.48-2.89c-0.13-0.17-0.44-0.25-0.37-0.5c0.06-0.2,0.34-0.23,0.53-0.33c0.5-0.3,1-0.6,1.5-0.91
		c0.14-0.09,0.26-0.09,0.4,0c1.29,0.8,2.57,1.6,3.86,2.4c1.78,1.11,3.57,2.21,5.35,3.31c1.69,1.05,3.38,2.1,5.08,3.15
		c1.93,1.2,3.86,2.39,5.8,3.58c1.47,0.91,2.93,1.82,4.4,2.73c1.93,1.2,3.86,2.39,5.79,3.59C55.63,32.01,57.04,32.88,58.52,33.79z"/>
	<path class="st1" d="M65.21,47.45c-0.06,0.6-0.15,1.15-0.19,1.71c-0.04,0.61-0.15,1.21-0.22,1.82c-0.11,0.87-0.17,1.75-0.31,2.62
		c-0.13,0.83-0.17,1.67-0.26,2.51c-0.09,0.86-0.21,1.72-0.31,2.57c-0.07,0.57-0.12,1.14-0.18,1.71c-0.08,0.77-0.17,1.54-0.25,2.3
		c-0.07,0.63-0.15,1.27-0.23,1.9c-0.12,0.87-0.17,1.75-0.3,2.62c-0.13,0.82-0.17,1.64-0.26,2.46c-0.09,0.85-0.21,1.69-0.3,2.54
		c-0.09,0.79-0.17,1.59-0.26,2.38c-0.09,0.79-0.17,1.59-0.26,2.38c-0.07,0.65-0.15,1.3-0.22,1.94c-0.1,0.87-0.21,1.74-0.31,2.62
		c-0.09,0.79-0.17,1.59-0.26,2.38c-0.1,0.89-0.22,1.77-0.31,2.66c-0.05,0.45-0.07,0.9-0.17,1.35c-0.02,0.11-0.04,0.17-0.17,0.22
		c-0.71,0.27-1.41,0.55-2.11,0.84c-0.31,0.13-0.28-0.17-0.3-0.28c-0.13-0.61-0.23-1.23-0.35-1.84c-0.26-1.38-0.53-2.76-0.79-4.14
		c-0.34-1.8-0.66-3.6-0.99-5.4c-0.31-1.63-0.64-3.25-0.94-4.88c-0.32-1.69-0.58-3.4-0.93-5.09c-0.21-0.99-0.36-1.98-0.57-2.97
		c-0.27-1.26-0.47-2.53-0.71-3.79c-0.2-1.04-0.41-2.08-0.61-3.12c-0.24-1.26-0.42-2.54-0.71-3.79c-0.12-0.5,0.03-0.64,0.44-0.8
		c1.16-0.45,2.31-0.93,3.47-1.4c1.25-0.51,2.5-1.03,3.76-1.54c1.6-0.65,3.2-1.29,4.8-1.94C64.29,47.83,64.72,47.65,65.21,47.45z"/>
	<path class="st2" d="M12.07,50.64c-0.03-0.03-0.12-0.05-0.07-0.1c0.04-0.04,0.1-0.01,0.12,0.05C12.1,50.61,12.09,50.63,12.07,50.64
		z"/>
	<path class="st0" d="M57.25,22.55c0.03-0.07,0.07-0.07,0.1,0C57.31,22.55,57.28,22.55,57.25,22.55z"/>
	<path class="st0" d="M26.39,56.59c-0.03,0.07-0.06,0.08-0.1,0C26.32,56.6,26.35,56.59,26.39,56.59z"/>
</g>
</svg>
