<?xml version="1.0" encoding="utf-8"?>
<!-- Generator: Adobe Illustrator 19.2.1, SVG Export Plug-In . SVG Version: 6.00 Build 0)  -->
<svg version="1.0" id="Layer_1" xmlns="http://www.w3.org/2000/svg" xmlns:xlink="http://www.w3.org/1999/xlink" x="0px" y="0px"
	 viewBox="0 0 14.7 15.1" style="enable-background:new 0 0 14.7 15.1;" xml:space="preserve">
<path d="M5.8,8.1c0.1-0.1,0.1-0.4,0-0.5L0.3,2.2c-0.4-0.4-0.4-1.2,0-1.6l0,0C0.9,0,1.9,0,2.4,0.6l5.2,5.2c0.1,0.1,0.4,0.1,0.5,0
	l5-5.4c0.4-0.4,1.2-0.4,1.6,0l0,0c0.4,0.4,0.4,1.2,0,1.6L9.6,7.4c-0.1,0.1-0.1,0.3,0,0.5l5.1,5.1c0.4,0.4,0.4,1.2,0,1.6l0,0
	c-0.4,0.4-1.2,0.4-1.6,0l-5-5c-0.1-0.1-0.4-0.1-0.5,0l-5.2,5.2c-0.4,0.4-1.2,0.4-1.6,0l0,0c-0.5-0.5-0.4-1.2,0.1-1.7L5.8,8.1z"/>
</svg>
