<svg id="Layer_1" data-name="Layer 1" xmlns="http://www.w3.org/2000/svg" viewBox="0 0 53.74 51.63"><defs><style>.cls-1{fill:#fefefd;}.cls-2{fill:#e49f40;}.cls-3{fill:#fdd045;}</style></defs><title>4</title><path class="cls-1" d="M3.75,30.33c0,5.69.12,11.39,0,17.08-0.09,3.27.88,4.85,4.46,4.73,6-.2,12,0,18-0.08,1.51,0,3.63.42,3.66-2,0-2.55-2.14-2.32-3.87-2.34-4.38,0-8.77-.21-13.13,0-3.37.2-4.26-1.11-4.18-4.3q0.29-10.94,0-21.89c-0.08-3.08,1-4,4-4,9.63,0.16,19.27,0,28.9.09,3,0,6.68-1.23,8.91.66s0.52,5.52.87,8.36c0,0.14,0,.29,0,0.44,0.09,1.58.65,3.16,2.33,3.19,2,0,2.54-1.62,2.55-3.39q0-4.82,0-9.63c0-8.79,0-8.84-8.76-8.86-2.53,0-4.78.08-4.4-3.51A2.24,2.24,0,0,0,41.2,2.35a2.19,2.19,0,0,0-2.6,2.31c-0.05,3.87-2.46,3.95-5.3,3.81-2.48-.12-5-0.11-7.44,0s-4.31-.13-4.36-3.3c0-1.43-.74-3-2.64-2.85-1.58.16-2.11,1.52-2,2.94,0.29,3-1.45,3.36-3.79,3.2-1.31-.09-2.64.09-3.94,0-3.9-.36-5.63,1.17-5.46,5.26C3.92,19.23,3.75,24.78,3.75,30.33Z" transform="translate(-2.45 -2.25)"/><path class="cls-2" d="M36.59,48.4c-1.21,0-7.13-5.7-7.12-6.81a2.72,2.72,0,0,1,1.4-2.08,1.82,1.82,0,0,1,2.71.35c2.57,3.14,4.34,1.28,6.25-.82s3.87-3.92,5.83-5.85c0.95-.93,2-1.21,3-0.07,0.81,0.89,1.74,1.88.66,3-3.84,4-7.77,7.84-11.68,11.72A3.74,3.74,0,0,1,36.59,48.4Z" transform="translate(-2.45 -2.25)"/><path class="cls-1" d="M3.51,17.58C5,31.62,11.19,45,26.4,53a6,6,0,0,0,6.08,0c15.33-7.47,23.17-24.76,23-40.36,0-2.65-1.32-3.57-3.69-3.73a45.19,45.19,0,0,1-20.12-6.1c-1.93-1.14-3.56-.55-5.28.4A43.27,43.27,0,0,1,9.2,8.68C3.29,9.21,3.31,9.41,3.51,17.58Z" transform="translate(-2.45 -2.25)"/><path class="cls-3" d="M2.51,17.58c-0.2-8.17-.22-8.37,5.69-8.9a43.27,43.27,0,0,0,17.2-5.4c1.72-.95,3.35-1.54,5.28-0.4A45.19,45.19,0,0,0,50.8,9c2.38,0.16,3.67,1.08,3.69,3.73,0.16,15.59-7.68,32.88-23,40.36a6,6,0,0,1-6.08,0C10.19,45,4,31.62,2.51,17.58Zm26,10.54c0,5.78.12,11.56-.08,17.34-0.13,3.73,1.13,3.41,3.6,1.81A36.47,36.47,0,0,0,45.74,31c0.93-2.11.65-2.86-1.72-2.82-5.2.08-10.4,0-15.61,0,0-5.62-.09-11.25,0-16.87C28.5,8.47,27.78,7.54,25,9a44.2,44.2,0,0,1-11.4,3.91c-6.83,1.53-7.07,2-5.28,9.19,0.21,0.84.47,1.67,0.6,2.52,0.38,2.58,1.72,3.61,4.42,3.51C18.38,28,23.43,28.11,28.47,28.12Z" transform="translate(-2.45 -2.25)"/></svg>