<svg id="Layer_1" data-name="Layer 1" xmlns="http://www.w3.org/2000/svg" viewBox="0 0 54.42 54.55"><defs><style>.cls-1{fill:#fefefd;}.cls-2{fill:#fdd045;}.cls-3{fill:#e49f40;}</style></defs><title>2</title><path class="cls-1" d="M27.77,12c-5.75,0-15.51,0-21.26,0-3,0-4.25,1.26-4.15,4.23a71.26,71.26,0,0,1,0,9c-0.37,4,1.17,5.39,5.13,5.33,10.82-.16,26.65,0,37.47-0.06,3.17,0,10.84-5.61,11.67-8.54a2.87,2.87,0,0,0,0-1.58c-1-3-8.57-8.38-11.77-8.39C39.46,12,33.11,12,27.77,12Z" transform="translate(-2.27 -0.79)"/><path class="cls-1" d="M35.91,44.42c0-2.32-.08-4.65,0-7s-1.35-3.36-3.31-3C29.14,35,25,32.38,22.19,36.3a1.54,1.54,0,0,0-.07.8c0,4.92,0,9.83,0,14.75,0,2.21,1.08,3.37,3.18,3.41,11.39,0.17,10.79.94,10.64-9.19C35.91,45.52,35.92,45,35.91,44.42Z" transform="translate(-2.27 -0.79)"/><path class="cls-1" d="M28.48,8.17c1.37,0,2.74,0,4.11,0,3.11,0.05,3.64-1.82,3.26-4.35C35.56,1.9,34.43.68,32.49,1.08c-3.39.71-7.42-2-10.21,1.82a2,2,0,0,0-.14.8C21.52,7.59,22.36,8.18,28.48,8.17Z" transform="translate(-2.27 -0.79)"/><path class="cls-2" d="M27.77,12c5.34,0,11.69,0,17,0,3.2,0,10.79,5.4,11.77,8.39a2.87,2.87,0,0,1,0,1.58c-0.83,2.93-8.5,8.54-11.67,8.54-10.82,0-26.65-.1-37.47.06-4,.06-5.49-1.37-5.13-5.33a71.26,71.26,0,0,0,0-9C2.25,13.29,3.55,12,6.51,12,12.26,12.09,22,12,27.77,12Z" transform="translate(-2.27 -0.79)"/><path class="cls-3" d="M35.92,44.42c0,0.55,0,1.09,0,1.64,0.15,10.13.76,9.36-10.64,9.19-2.1,0-3.2-1.19-3.18-3.41,0-4.92,0-9.83,0-14.75a1.54,1.54,0,0,1,.07-0.8c2.86-3.92,7-1.25,10.44-1.86,2-.34,3.42.58,3.31,3S35.91,42.1,35.92,44.42Z" transform="translate(-2.27 -0.79)"/><path class="cls-3" d="M28.48,8.18c-6.12,0-7-.58-6.34-4.47a2,2,0,0,1,.14-0.8C25.07-1,29.1,1.79,32.49,1.08c1.94-.4,3.07.82,3.36,2.74,0.38,2.54-.15,4.41-3.26,4.35C31.22,8.15,29.85,8.17,28.48,8.18Z" transform="translate(-2.27 -0.79)"/></svg>