<?xml version="1.0" encoding="UTF-8"?>
<svg width="24px" height="24px" viewBox="0 0 24 24" version="1.1" xmlns="http://www.w3.org/2000/svg" xmlns:xlink="http://www.w3.org/1999/xlink">
    <!-- Generator: sketchtool 50.2 (55047) - http://www.bohemiancoding.com/sketch -->
    <title>6E653105-7200-4BE5-AAE1-FAAF2D6D101D</title>
    <desc>Created with sketchtool.</desc>
    <defs></defs>
    <g id="Landingspagina-2" stroke="none" stroke-width="1" fill="none" fill-rule="evenodd">
        <g id="101_Mobile-768-country-page" transform="translate(-478.000000, -2448.000000)">
            <g id="Group-9" transform="translate(454.000000, 2024.000000)">
                <g id="Group" transform="translate(24.000000, 74.000000)">
                    <g id="Group-12" transform="translate(1.000000, 351.000000)">
                        <path d="M10.95,16.707 C11.731,15.926 12.997,15.926 13.778,16.707 L14.485,16 C16.828,13.657 16.828,9.858 14.485,7.515 C12.142,5.172 8.343,5.172 6,7.515 L5.293,8.222 C6.074,9.003 6.074,10.269 5.293,11.05 C4.512,11.831 3.246,11.831 2.465,11.05 L1.758,11.757 C-0.585,14.1 -0.585,17.899 1.758,20.242 C4.101,22.585 7.9,22.585 10.243,20.242 L10.95,19.535 C10.169,18.754 10.169,17.488 10.95,16.707 Z" id="Shape" stroke="#212B35" stroke-width="2" stroke-linecap="round" stroke-linejoin="round"></path>
                        <rect id="Rectangle-path" stroke="#212B35" stroke-width="1.99998082" stroke-linecap="round" stroke-linejoin="round" transform="translate(18.727938, 3.271900) rotate(45.000000) translate(-18.727938, -3.271900) " x="16.7279568" y="1.27191918" width="3.99996164" height="3.99996164"></rect>
                        <path d="M17.314,4.686 L11.657,10.343" id="Shape" stroke="#212B35" stroke-width="2" stroke-linecap="round" stroke-linejoin="round"></path>
                        <circle id="Oval" stroke="#212B35" stroke-width="1.99998082" stroke-linecap="round" stroke-linejoin="round" transform="translate(10.949600, 11.049910) rotate(-45.000000) translate(-10.949600, -11.049910) " cx="10.9496" cy="11.04991" r="1"></circle>
                        <circle id="Oval" fill="#212B35" fill-rule="nonzero" transform="translate(10.949600, 11.049910) rotate(-45.000000) translate(-10.949600, -11.049910) " cx="10.9496" cy="11.04991" r="1"></circle>
                        <path d="M4.586,16 L6,17.414" id="Shape" stroke="#212B35" stroke-width="2" stroke-linecap="round" stroke-linejoin="round"></path>
                    </g>
                </g>
            </g>
        </g>
    </g>
</svg>