<?xml version="1.0" encoding="UTF-8"?>
<svg width="24px" height="24px" viewBox="0 0 24 24" version="1.1" xmlns="http://www.w3.org/2000/svg" xmlns:xlink="http://www.w3.org/1999/xlink">
    <!-- Generator: sketchtool 52.2 (67145) - http://www.bohemiancoding.com/sketch -->
    <title>5D63292E-EA15-4C09-8459-6D79D025D3C0</title>
    <desc>Created with sketchtool.</desc>
    <g id="Trippagina" stroke="none" stroke-width="1" fill="none" fill-rule="evenodd">
        <g id="Trip-Detail-program-Copy-2" transform="translate(-797.000000, -6246.000000)" fill="#212B35" fill-rule="nonzero">
            <g id="Group-26" transform="translate(-2.000000, 6014.000000)">
                <g id="Group-14" transform="translate(305.000000, 82.000000)">
                    <g id="Group-10" transform="translate(54.000000, 137.000000)">
                        <g id="Group-13">
                            <g id="Group-11" transform="translate(312.000000, 13.000000)">
                                <g id="Group-60" transform="translate(128.000000, 0.000000)">
                                    <path d="M17.0013913,13.8709565 L13.5652174,17.3071304 L6.69286957,10.4347826 L10.1290435,6.9986087 C10.5370435,6.5906087 10.5370435,5.93008696 10.1290435,5.52313043 L4.91165217,0.30573913 C4.50365217,-0.10226087 3.84313043,-0.10226087 3.43617391,0.30573913 L0,3.74191304 C0,15.290087 8.70782609,24 20.258087,24 L23.6942609,20.5638261 C24.1022609,20.1558261 24.1022609,19.4953043 23.6942609,19.0883478 L18.4768696,13.8709565 C18.069913,13.464 17.4083478,13.464 17.0013913,13.8709565 Z" id="Shape"></path>
                                </g>
                            </g>
                        </g>
                    </g>
                </g>
            </g>
        </g>
    </g>
</svg>