<?xml version="1.0" encoding="UTF-8"?>
<svg width="24px" height="24px" viewBox="0 0 24 24" version="1.1" xmlns="http://www.w3.org/2000/svg" xmlns:xlink="http://www.w3.org/1999/xlink">
    <!-- Generator: sketchtool 52.2 (67145) - http://www.bohemiancoding.com/sketch -->
    <title>C3E96B7E-4781-4676-940D-9026F622B76D</title>
    <desc>Created with sketchtool.</desc>
    <g id="Trippagina" stroke="none" stroke-width="1" fill="none" fill-rule="evenodd">
        <g id="Trip-Detail-program-Copy-2" transform="translate(-437.000000, -6248.000000)" fill="#212B35" fill-rule="nonzero">
            <g id="Group-26" transform="translate(-2.000000, 6014.000000)">
                <g id="Group-14" transform="translate(305.000000, 82.000000)">
                    <g id="Group-10" transform="translate(54.000000, 137.000000)">
                        <g id="Group-13">
                            <g id="Group-12" transform="translate(0.000000, 15.000000)">
                                <g id="Group-61" transform="translate(80.000000, 0.000000)">
                                    <path d="M12,0 C5.37216937,0 0,4.973 0,11.108 C0,14.598 1.73853018,17.712 4.45795101,19.748 L4.45795101,24 L8.55324522,21.751 C9.64525633,22.054 10.8019194,22.216 12,22.216 C18.6278306,22.216 24,17.243 24,11.108 C24,4.973 18.6278306,0 12,0 Z M13.2637427,14.896 L10.1604512,11.704 L4.1831804,14.976 L10.7362573,8.092 L13.8395488,11.284 L19.8168196,8.012 L13.2637427,14.896 Z" id="Shape"></path>
                                </g>
                            </g>
                        </g>
                    </g>
                </g>
            </g>
        </g>
    </g>
</svg>