<?xml version="1.0" encoding="UTF-8"?>
<svg width="38px" height="39px" viewBox="0 0 38 39" version="1.1" xmlns="http://www.w3.org/2000/svg" xmlns:xlink="http://www.w3.org/1999/xlink">
    <!-- Generator: sketchtool 51.2 (57519) - http://www.bohemiancoding.com/sketch -->
    <title>5691ED58-A827-47C8-9EEC-7260A49759C8-909-0000FF7CFFE7EE5A</title>
    <desc>Created with sketchtool.</desc>
    <defs></defs>
    <g id="Homepage-CHECK" stroke="none" stroke-width="1" fill="none" fill-rule="evenodd">
        <g id="D_homepage_XL" transform="translate(-1290.000000, -5616.000000)" fill="#212B35" fill-rule="nonzero">
            <g id="footer-versie-2" transform="translate(-1.000000, 5551.000000)">
                <g id="Group-4" transform="translate(1.000000, 32.000000)">
                    <g id="Group" transform="translate(1226.000000, 0.000000)">
                        <g id="Group-70" transform="translate(0.000000, 33.312500)">
                            <g id="instagram" transform="translate(64.000000, 0.000000)">
                                <path d="M19,3.44693866 C24.073,3.44693866 24.6746667,3.4660706 26.6775833,3.55854167 C28.8404167,3.65739005 30.8465,4.09423611 32.39025,5.6487066 C33.934,7.20317708 34.3678333,9.22319155 34.466,11.4010446 C34.5578333,13.4178704 34.5768333,14.0237153 34.5768333,19.1319444 C34.5768333,24.2401736 34.5578333,24.8460185 34.466,26.8628443 C34.3678333,29.0406973 33.934,31.0607118 32.39025,32.6151823 C30.8465,34.1696528 28.8404167,34.6064988 26.6775833,34.7053472 C24.6746667,34.7978183 24.073,34.8169502 19,34.8169502 C13.927,34.8169502 13.3253333,34.7978183 11.3224167,34.7053472 C9.15958333,34.6064988 7.1535,34.1696528 5.60975,32.6151823 C4.066,31.0607118 3.63216667,29.0406973 3.534,26.8628443 C3.44216667,24.8460185 3.42316667,24.2401736 3.42316667,19.1319444 C3.42316667,14.0237153 3.44216667,13.4178704 3.534,11.4010446 C3.63216667,9.22319155 4.066,7.20317708 5.60975,5.6487066 C7.1535,4.09423611 9.15958333,3.65739005 11.3224167,3.55854167 C13.3253333,3.4660706 13.927,3.44693866 19,3.44693866 Z M19,0 C13.8399167,0 13.1923333,0.0223206019 11.1656667,0.114791667 C8.07816667,0.256686921 5.36591667,1.01877604 3.18883333,3.21097801 C1.01175,5.40317998 0.254916667,8.13426505 0.114,11.243206 C0.0221666667,13.2839468 0,13.9360272 0,19.1319444 C0,24.3278617 0.0221666667,24.9799421 0.114,27.0206829 C0.254916667,30.1296238 1.01175,32.8607089 3.18883333,35.0529109 C5.36591667,37.2451128 8.07816667,38.007202 11.1656667,38.1490972 C13.1923333,38.2415683 13.8399167,38.2638889 19,38.2638889 C24.1600833,38.2638889 24.8076667,38.2415683 26.8343333,38.1490972 C29.9218333,38.007202 32.6340833,37.2451128 34.8111667,35.0529109 C36.98825,32.8607089 37.7450833,30.1296238 37.886,27.0206829 C37.9778333,24.9799421 38,24.3278617 38,19.1319444 C38,13.9360272 37.9778333,13.2839468 37.886,11.243206 C37.7450833,8.13426505 36.98825,5.40317998 34.8111667,3.21097801 C32.6340833,1.01877604 29.9218333,0.256686921 26.8343333,0.114791667 C24.8076667,0.0223206019 24.1600833,0 19,0 Z" id="Shape"></path>
                                <path d="M19,9.30769097 C13.6119167,9.30769097 9.2435,13.7064439 9.2435,19.1319444 C9.2435,24.557445 13.6119167,28.9561979 19,28.9561979 C24.3880833,28.9561979 28.7565,24.557445 28.7565,19.1319444 C28.7565,13.7064439 24.3880833,9.30769097 19,9.30769097 Z M19,25.5092593 C15.5024167,25.5092593 12.6666667,22.6538166 12.6666667,19.1319444 C12.6666667,15.6100723 15.5024167,12.7546296 19,12.7546296 C22.4975833,12.7546296 25.3333333,15.6100723 25.3333333,19.1319444 C25.3333333,22.6538166 22.4975833,25.5092593 19,25.5092593 Z" id="Shape"></path>
                                <ellipse id="Oval" cx="29.1428333" cy="8.91867477" rx="2.28" ry="2.29583333"></ellipse>
                            </g>
                        </g>
                    </g>
                </g>
            </g>
        </g>
    </g>
</svg>