<svg id="Layer_1" data-name="Layer 1" xmlns="http://www.w3.org/2000/svg" viewBox="0 0 55 52"><defs><style>.cls-1{fill:#232b34;}</style></defs><title>Untitled-3</title><path class="cls-1" d="M17.74,36.13H5.63A1.63,1.63,0,0,1,4,34.5V22.92a1.63,1.63,0,0,1,2.76-1.18L18.87,33.33A1.63,1.63,0,0,1,17.74,36.13Z"/><path class="cls-1" d="M9.54,39.23h8.11a1.72,1.72,0,0,1,1.22,2.94L14,47a1.72,1.72,0,0,1-2.65-.26L8.11,41.91A1.72,1.72,0,0,1,9.54,39.23Z"/><path class="cls-1" d="M38.74,36.13H50.18A1.82,1.82,0,0,0,52,34.31V23.37a1.82,1.82,0,0,0-3.08-1.32L37.48,33A1.82,1.82,0,0,0,38.74,36.13Z"/><path class="cls-1" d="M45.57,39.23H39.5A2.2,2.2,0,0,0,37.95,43l3.64,3.64A2.2,2.2,0,0,0,45,46.29l2.43-3.64A2.2,2.2,0,0,0,45.57,39.23Z"/><path class="cls-1" d="M26,33.32,9.36,16.72a3.85,3.85,0,0,1,.57-5.9C16.15,6.59,29.79.27,46,11a3.86,3.86,0,0,1,.71,5.84L31.49,33.22A3.84,3.84,0,0,1,26,33.32Z"/></svg>