<?xml version="1.0" encoding="utf-8"?>
<!-- Generator: Adobe Illustrator 21.0.0, SVG Export Plug-In . SVG Version: 6.00 Build 0)  -->
<svg version="1.1" id="Layer_1" xmlns="http://www.w3.org/2000/svg" xmlns:xlink="http://www.w3.org/1999/xlink" x="0px" y="0px"
	 viewBox="0 0 55 52" style="enable-background:new 0 0 55 52;" xml:space="preserve">
<style type="text/css">
	.st0{fill:#232B34;}
</style>
<title>Untitled-3</title>
<path class="st0" d="M22.2,44.3c-0.7-3.3,0.8-5.4,3.4-7c2.2,0,4.2-0.9,5.7-2.5l13.1-14.6c2.8-3.2,2.6-8-0.6-10.8
	c-3.2-2.8-8-2.6-10.8,0.6L19.8,24.5c-1.3,1.5-2,3.4-2,5.4c-0.1,0.3-0.2,0.6-0.4,1c-1,2.4-3.5,3.8-6.1,3.4c-1.9-0.2-2.4,1.1-0.9,2.5
	c1.9,1.7,2.8,3.4,1.4,5.8c-0.4,0.7-0.7,1.5,0.1,2.1c0.7,0.6,1.5,0.3,2.1-0.2c2-1.6,3.8-1.1,5.6,0.6C20.7,45.9,22.6,46.4,22.2,44.3z"
	/>
<path class="st0" d="M26.2,11.9L15.3,8.8c-1.3-0.4-2.6,0.4-2.9,1.6l-1.5,4.9c-0.3,1,0.3,2.1,1.3,2.4l7.9,2.3c0.9,0.3,1.8,0,2.4-0.7
	l4.3-5.1c0.5-0.6,0.5-1.5-0.1-2C26.6,12.1,26.4,12,26.2,11.9z"/>
<path class="st0" d="M47.5,37.9l-4.2-10.6c-0.3-0.7-1.1-1.1-1.9-0.8c-0.2,0.1-0.4,0.2-0.5,0.3l-4.7,4.9c-0.6,0.7-0.8,1.7-0.5,2.5
	l3.2,7.6c0.4,1,1.5,1.4,2.5,1.1l4.7-1.9C47.4,40.5,48,39.1,47.5,37.9z"/>
</svg>
