<svg id="Layer_1" data-name="Layer 1" xmlns="http://www.w3.org/2000/svg" viewBox="0 0 54 40.08"><defs><style>.cls-1{fill:#232b34;}</style></defs><title>bad</title><path class="cls-1" d="M6.4,23V8A2.84,2.84,0,0,0,3.7,5h0A2.84,2.84,0,0,0,1,8V42.11a2.84,2.84,0,0,0,2.7,3h0a2.84,2.84,0,0,0,2.7-3V36.17H49.6v5.94a2.84,2.84,0,0,0,2.7,3h0a2.84,2.84,0,0,0,2.7-3v-19c0-6.69-4.94-12.12-11-12.12h-13a4.5,4.5,0,0,0-4.28,4.7V23a5.39,5.39,0,0,1-5.08,5.62l-10,.08A5.42,5.42,0,0,1,6.4,23Z" transform="translate(-1 -5)"/><ellipse class="cls-1" cx="15.52" cy="11.13" rx="6.08" ry="6.68"/></svg>