<svg id="Layer_1" data-name="Layer 1" xmlns="http://www.w3.org/2000/svg" viewBox="0 0 56.67 44.46"><defs><style>.cls-1{fill:#fdcf41;}.cls-2{fill:#e49f40;}</style></defs><title>con_icon7</title><path class="cls-1" d="M14.33,52.16a4.29,4.29,0,0,1-3.58-1.73c-3.15-3.9-6.22-7.87-9.33-11.8-1.7-2.15-.28-3.55,1-5s2.49-2.34,4.14-.8a7.73,7.73,0,0,0,.72.62c7.06,5.09,7,5.17,12.8-1.36Q29.82,21,39.45,9.83c1.67-2,3.19-3,5.45-1.15,2.66,2.21.4,3.71-.69,5.26Q32.27,31,20.25,48C18.85,50,17.47,52.12,14.33,52.16Z" transform="translate(-0.65 -7.71)"/><path class="cls-2" d="M51.72,31.1c0.75,0,2.32,0,3.07,0,1.83,0,2.55.94,2.52,2.93,0,2.37-1.17,3.17-3.74,2.82a52,52,0,0,0-14.73,0c-2.89.44-4.28-.54-4.17-3.18,0.09-2.18,1.41-2.57,3.07-2.56C42.4,31.09,47.06,31,51.72,31.1Z" transform="translate(-0.65 -7.71)"/><path class="cls-2" d="M50.79,23.27c-1,0-2,0-3,0-1.87.06-3.3-.35-3.19-2.88,0.09-2.22,1.45-2.52,3.07-2.51,2.15,0,4.31,0,6.46,0,1.9,0,3.22.44,3.15,2.94-0.06,2.32-1.43,2.47-3,2.46C53.11,23.26,52,23.27,50.79,23.27Z" transform="translate(-0.65 -7.71)"/><path class="cls-2" d="M57.23,46c0.15-2.24-1.43-2.23-2.86-2.23H30.28c-1.42,0-3.12,0-3,2.24l0,2.52c-0.3,2.43,1.46,2.75,2.93,2.75H54.37c1.47,0,3.12-.32,2.83-2.75Z" transform="translate(-0.65 -7.71)"/></svg>