<svg id="Layer_1" data-name="Layer 1" xmlns="http://www.w3.org/2000/svg" viewBox="0 0 54.19 54.03"><defs><style>.cls-1{fill:#fdcf41;}.cls-2{fill:#e49f40;}</style></defs><title>con_icon6</title><path class="cls-1" d="M30.43,18.91c1.94,0,3.89-.11,5.82,0,4.61,0.33,7.05,2.87,7.2,7.42,0.08,2.39-.07,4.78,0,7.17,0.16,3.35.31,6.46-4.61,5.94-1.87-.2-2,1.45-2,2.84,0,2.84,0,5.68,0,8.51s-1,4-4,4.11c-9.84.42-9.85,0.52-9.84-9.46,0-3.26.78-6.91-4.66-6.3-1.72.19-1.92-1.51-1.91-2.94,0-3.14,0-6.27,0-9.41,0.09-5.12,2.53-7.65,7.63-7.91C26.24,18.82,28.34,18.91,30.43,18.91Z" transform="translate(-2.79 -1.05)"/><path class="cls-2" d="M3,29.23c0-1.74,0-3.09,0-4.43A6.71,6.71,0,0,1,12.61,19c1.44,0.69.87,1.6,0.55,2.58-2,6.28-.7,12.73-1,19.11-0.06,1.27.41,2.48,1.88,2.62,3.36,0.31,2.63,2.79,2.36,4.69-0.42,2.95-2.94,2.36-5,2.44-2.22.09-3.85-.63-3.94-3.17-0.06-1.64,0-3.28,0-4.92-0.05-2.44.43-4.53-3.14-5.8C1.35,35.5,3.75,31.44,3,29.23Z" transform="translate(-2.79 -1.05)"/><path class="cls-2" d="M56.91,29.88c-0.28,2.6,1.47,6.45-3.76,8.26-1.72.6-.52,4.7-0.61,7.2-0.18,4.59-1.57,5.79-6.11,5.09-1.66-.26-2.94-0.89-2.92-2.73,0-1.62-.94-3.87,1.85-4.24,2.21-.29,2.6-1.75,2.49-3.52-0.37-6.21,1.06-12.54-1.15-18.63-0.25-.7-0.63-1.64.18-2a10.52,10.52,0,0,1,6.57-.13,4.06,4.06,0,0,1,3.45,4.1C56.93,25.25,56.91,27.19,56.91,29.88Z" transform="translate(-2.79 -1.05)"/><path class="cls-1" d="M23.14,7.52a6.86,6.86,0,0,1,13.7.65A6.86,6.86,0,0,1,23.14,7.52Z" transform="translate(-2.79 -1.05)"/><path class="cls-2" d="M47.78,16.89c-2.56-.48-4.34-1.92-4.22-4.75s1.83-4.56,4.57-4.43a4.37,4.37,0,0,1,4.42,4.63C52.42,14.85,50.72,16.67,47.78,16.89Z" transform="translate(-2.79 -1.05)"/><path class="cls-2" d="M16.57,12.08c-0.44,3.08-2,4.82-4.75,4.72a4.41,4.41,0,0,1-4.4-4.74,4.41,4.41,0,0,1,4.72-4.37C14.91,7.78,16.19,9.77,16.57,12.08Z" transform="translate(-2.79 -1.05)"/></svg>