<?xml version="1.0" encoding="UTF-8"?>
<svg width="24px" height="21px" viewBox="0 0 24 21" version="1.1" xmlns="http://www.w3.org/2000/svg" xmlns:xlink="http://www.w3.org/1999/xlink">
    <!-- Generator: sketchtool 50.2 (55047) - http://www.bohemiancoding.com/sketch -->
    <title>C5973551-D25A-4C06-A2A6-DDC03896ED7E</title>
    <desc>Created with sketchtool.</desc>
    <defs></defs>
    <g id="Landingspagina-2" stroke="none" stroke-width="1" fill="none" fill-rule="evenodd" stroke-linecap="round" stroke-linejoin="round">
        <g id="101_Mobile-768-country-page" transform="translate(-478.000000, -2291.000000)" stroke="#212B35" stroke-width="2">
            <g id="Group-9" transform="translate(454.000000, 2024.000000)">
                <g id="Group" transform="translate(24.000000, 74.000000)">
                    <g id="Group-10" transform="translate(1.000000, 194.000000)">
                        <path d="M0,19 L1,19 C2.1,19 3,18.1 3,17 L3,16 L0.8,14.8 C0.1,14.4 0.1,13.4 0.8,13 L3,12 L3,10 L5.3,9.4 C6.1,9.2 6.3,8.3 5.8,7.7 L3,5 L3,0" id="Shape"></path>
                        <path d="M7,14 L10,10 L10,4 C10,2.9 10.9,2 12,2 L20,2 C21.1,2 22,2.9 22,4 L22,12 C22,13.1 21.1,14 20,14 L13,14 L7,14 Z" id="Shape"></path>
                        <path d="M14,6 L18,6" id="Shape"></path>
                        <path d="M14,10 L16,10" id="Shape"></path>
                    </g>
                </g>
            </g>
        </g>
    </g>
</svg>