<?xml version="1.0" encoding="utf-8"?>
<!-- Generator: Adobe Illustrator 23.0.5, SVG Export Plug-In . SVG Version: 6.00 Build 0)  -->
<svg version="1.1" id="Layer_1" xmlns="http://www.w3.org/2000/svg" xmlns:xlink="http://www.w3.org/1999/xlink" x="0px" y="0px"
	 viewBox="0 0 100 100" style="enable-background:new 0 0 100 100;" xml:space="preserve">
<style type="text/css">
	.st0{fill:#E5A03E;enable-background:new    ;}
</style>
<path class="st0" d="M90.56,23.11c1.35,0,2.44-1.09,2.44-2.44v-4.89c0-1.35-1.09-2.44-2.44-2.44H7.44C6.09,13.33,5,14.43,5,15.78
	v4.89c0,1.35,1.09,2.44,2.44,2.44h2.44v58.67H7.44C6.09,81.78,5,82.87,5,84.22v4.89c0,1.35,1.09,2.44,2.44,2.44h36.67V79.33
	c0-1.34,1.1-2.44,2.44-2.44h4.89c1.34,0,2.44,1.1,2.44,2.44v12.22h36.67c1.35,0,2.44-1.09,2.44-2.44v-4.89
	c0-1.35-1.09-2.44-2.44-2.44h-2.44V23.11H90.56z M44.11,29.96c0-0.98,0.98-1.96,1.96-1.96h5.87c0.98,0,1.96,0.98,1.96,1.96v5.87
	c0,0.98-0.98,1.96-1.96,1.96h-5.87c-0.98,0-1.96-0.98-1.96-1.96L44.11,29.96L44.11,29.96z M44.11,44.62c0-0.98,0.98-1.96,1.96-1.96
	h5.87c0.98,0,1.96,0.98,1.96,1.96v5.87c0,0.98-0.98,1.96-1.96,1.96h-5.87c-0.98,0-1.96-0.98-1.96-1.96L44.11,44.62L44.11,44.62z
	 M24.56,29.96c0-0.98,0.98-1.96,1.96-1.96h5.87c0.98,0,1.96,0.98,1.96,1.96v5.87c0,0.98-0.98,1.96-1.96,1.96h-5.87
	c-0.98,0-1.96-0.98-1.96-1.96L24.56,29.96L24.56,29.96z M32.38,52.44h-5.87c-0.98,0-1.96-0.98-1.96-1.96v-5.87
	c0-0.98,0.98-1.96,1.96-1.96h5.87c0.98,0,1.96,0.98,1.96,1.96v5.87C34.33,51.47,33.36,52.44,32.38,52.44L32.38,52.44z M34.33,72
	c0-8.1,6.57-14.67,14.67-14.67S63.67,63.9,63.67,72H34.33z M73.44,50.49c0,0.98-0.98,1.96-1.96,1.96h-5.87
	c-0.98,0-1.96-0.98-1.96-1.96v-5.87c0-0.98,0.98-1.96,1.96-1.96h5.87c0.98,0,1.96,0.98,1.96,1.96V50.49L73.44,50.49z M73.44,35.82
	c0,0.98-0.98,1.96-1.96,1.96h-5.87c-0.98,0-1.96-0.98-1.96-1.96v-5.87c0-0.98,0.98-1.96,1.96-1.96h5.87c0.98,0,1.96,0.98,1.96,1.96
	V35.82z"/>
</svg>
