<svg id="Layer_1" data-name="Layer 1" xmlns="http://www.w3.org/2000/svg" viewBox="0 0 24.01 24.05"><defs><style>.cls-1{fill:#fff;}</style></defs><title>search</title><path class="cls-1" d="M24.36,12.83c0,1.95.06,3.37-.73,4.48-1.4,2-.7,3.29.91,4.62a19.22,19.22,0,0,1,2.39,2.54,1.26,1.26,0,0,1-.1,1.8,1.31,1.31,0,0,1-1.79.31c-1.89-1.19-2.92-4.11-5.09-4.07C18,22.55,16,24,13.77,24A10.73,10.73,0,0,1,3.28,14.49,10.8,10.8,0,0,1,12.08,2.92,10.64,10.64,0,0,1,24,10.47,13.2,13.2,0,0,1,24.36,12.83Zm-2.95.53a7.47,7.47,0,0,0-7.63-7.5,7.72,7.72,0,0,0-7.48,7.5A7.56,7.56,0,0,0,14,20.8,7.34,7.34,0,0,0,21.41,13.35Z" transform="translate(-3.24 -2.76)"/></svg>