<?xml version="1.0" encoding="UTF-8"?>
<svg width="43px" height="42px" viewBox="0 0 43 42" version="1.1" xmlns="http://www.w3.org/2000/svg" xmlns:xlink="http://www.w3.org/1999/xlink">
    <!-- Generator: sketchtool 51.2 (57519) - http://www.bohemiancoding.com/sketch -->
    <title>0C4685BA-7CCD-4F22-A545-F0E0CA0543A2</title>
    <desc>Created with sketchtool.</desc>
    <defs></defs>
    <g id="Homepage-CHECK" stroke="none" stroke-width="1" fill="none" fill-rule="evenodd">
        <g id="D_homepage_XL" transform="translate(-867.000000, -4433.000000)" fill="#FFCF35" fill-rule="nonzero">
            <g id="Group-30" transform="translate(-3.000000, 4288.000000)">
                <g id="Group-22" transform="translate(308.000000, 61.000000)">
                    <g id="Group-20-Copy-2" transform="translate(427.000000, 84.000000)">
                        <g id="Group-39">
                            <g id="Group-27-Copy-2">
                                <path d="M176.798311,15.3379791 L163.084743,14.1370014 L157.740147,1.34942623 C157.527172,0.839857808 156.941435,0.599421545 156.431866,0.812396811 C156.189028,0.913891366 155.995994,1.10702941 155.89463,1.34992155 L150.548848,14.1596552 L136.843002,15.3405969 C136.292756,15.388008 135.885128,15.8725047 135.932539,16.4227507 C135.95465,16.6793658 136.074923,16.9175539 136.268299,17.0876887 L146.689934,26.2567742 L143.564916,39.8613726 C143.441274,40.3996394 143.777394,40.9362222 144.315661,41.0598638 C144.570869,41.1184859 144.838889,41.0746664 145.06214,40.9378198 L156.816795,33.7325219 L168.57523,40.9401361 C169.046094,41.2287634 169.661783,41.0810315 169.95041,40.6101676 C170.087016,40.3873101 170.130931,40.1198228 170.072751,39.8649861 L166.965963,26.2567742 L177.3723,17.0843487 C177.786614,16.7191609 177.826439,16.0872496 177.461251,15.6729353 C177.291469,15.4803133 177.054099,15.36038 176.798311,15.3379791 Z" id="Shape-Copy-6"></path>
                            </g>
                        </g>
                    </g>
                </g>
            </g>
        </g>
    </g>
</svg>