<?xml version="1.0" encoding="utf-8"?>
<!-- Generator: Adobe Illustrator 19.2.1, SVG Export Plug-In . SVG Version: 6.00 Build 0)  -->
<svg version="1.0" id="Layer_1" xmlns="http://www.w3.org/2000/svg" xmlns:xlink="http://www.w3.org/1999/xlink" x="0px" y="0px"
	 viewBox="0 0 14 10.4" style="enable-background:new 0 0 14 10.4;" xml:space="preserve">
<style type="text/css">
	.st0{fill:#202A34;}
</style>
<path class="st0" d="M3.7,4.4h8.5c0.4,0,0.8,0.3,0.8,0.8v0.1C13,5.7,12.7,6,12.2,6H3.7l2.4,2.4c0.3,0.3,0.3,0.8,0,1.1l0,0
	C5.8,9.7,5.3,9.7,5,9.5L1.2,5.6C1,5.4,1,5.1,1.2,5l4-4c0.3-0.3,0.8-0.3,1.1,0l0,0c0.3,0.3,0.3,0.8,0,1.1L3.7,4.4z"/>
</svg>
