<?xml version="1.0" encoding="UTF-8"?>
<svg width="24px" height="24px" viewBox="0 0 24 24" version="1.1" xmlns="http://www.w3.org/2000/svg" xmlns:xlink="http://www.w3.org/1999/xlink">
    <!-- Generator: sketchtool 51.2 (57519) - http://www.bohemiancoding.com/sketch -->
    <title>8E2EB5D6-3422-442F-8483-6F098E33CF6E</title>
    <desc>Created with sketchtool.</desc>
    <defs></defs>
    <g id="Homepage-CHECK" stroke="none" stroke-width="1" fill="none" fill-rule="evenodd">
        <g id="M_homepage" transform="translate(-176.000000, -3501.000000)" fill="#212B35" fill-rule="nonzero">
            <g id="Group-10" transform="translate(0.000000, 3172.000000)">
                <g id="Group-9" transform="translate(15.000000, 40.000000)">
                    <g id="Group-5" transform="translate(97.000000, 289.000000)">
                        <g id="award-49" transform="translate(64.000000, 0.000000)">
                            <path d="M0,1 L0,20 C0,20.552 0.448,21 1,21 L14,21 L14,16.874 C12.718,15.572 12,13.845 12,12 C12,8.14 15.141,5 19,5 L19,1 C19,0.448 18.552,0 18,0 L1,0 C0.448,0 0,0.448 0,1 Z M8,16 L4,16 L4,14 L8,14 L8,16 Z M8,11 L4,11 L4,9 L8,9 L8,11 Z M11,6 L4,6 L4,4 L11,4 L11,6 Z" id="Shape"></path>
                            <path d="M19,19 C17.926,19 16.911,18.749 16,18.315 L16,24 L19,22 L22,24 L22,18.315 C21.089,18.749 20.074,19 19,19 Z" id="Shape"></path>
                            <circle id="Oval" cx="19" cy="12" r="5"></circle>
                        </g>
                    </g>
                </g>
            </g>
        </g>
    </g>
</svg>