<?xml version="1.0" encoding="utf-8"?>
<!-- Generator: Adobe Illustrator 23.0.5, SVG Export Plug-In . SVG Version: 6.00 Build 0)  -->
<svg version="1.1" id="Layer_1" xmlns="http://www.w3.org/2000/svg" xmlns:xlink="http://www.w3.org/1999/xlink" x="0px" y="0px"
	 viewBox="0 0 24 18" style="enable-background:new 0 0 24 18;" xml:space="preserve">
<style type="text/css">
	.st0{fill:#FFCF35;}
</style>
<title>FDB03135-E227-4125-815B-6224FDFBEC35-909-0000781A2377268F</title>
<desc>Created with sketchtool.</desc>
<g id="Homepage-CHECK">
	<g id="Style-elements" transform="translate(-43.000000, -1337.000000)">
		<g transform="translate(42.000000, 884.000000)">
			<g transform="translate(0.000000, 249.000000)">
				<g id="Group" transform="translate(1.000000, 198.000000)">
					<g>
						<path id="Shape" class="st0" d="M21,6H3C1.3,6,0,7.3,0,9v11c0,0.6,0.4,1,1,1h1.1c0.2,1.7,1.7,3,3.4,3s3.2-1.3,3.4-3h6.1
							c0.2,1.7,1.7,3,3.4,3c1.8,0,3.2-1.3,3.4-3H23c0.6,0,1-0.4,1-1V9C24,7.3,22.7,6,21,6z M22,9v4h-4V8h3C21.6,8,22,8.4,22,9z M3,8
							h13v5H2V9C2,8.4,2.4,8,3,8z M5.5,22C4.7,22,4,21.3,4,20.5S4.7,19,5.5,19S7,19.7,7,20.5S6.3,22,5.5,22z M18.5,22
							c-0.8,0-1.5-0.7-1.5-1.5s0.7-1.5,1.5-1.5s1.5,0.7,1.5,1.5S19.3,22,18.5,22z"/>
					</g>
				</g>
			</g>
		</g>
	</g>
</g>
</svg>
