<?xml version="1.0" encoding="utf-8"?>
<!-- Generator: Adobe Illustrator 19.2.1, SVG Export Plug-In . SVG Version: 6.00 Build 0)  -->
<svg version="1.1" id="Layer_1" xmlns="http://www.w3.org/2000/svg" xmlns:xlink="http://www.w3.org/1999/xlink" x="0px" y="0px"
	 viewBox="0 0 41.1 41.1" style="enable-background:new 0 0 41.1 41.1;" xml:space="preserve">
<style type="text/css">
	.st0{fill:#50B83C;}
</style>
<g>
	<path class="st0" d="M0,20.4C0,9.1,9,0,20.1,0c11.6,0,21.1,9.3,21,20.8c0,10.7-9.8,20.3-20.6,20.3C9.3,41.2,0,31.8,0,20.4z
		 M5.6,17.1c9.3,0,18.6,0,27.8,0c2.5,0,2.2-1.2,1.6-2.8c-2.1-5.5-9.1-9.6-15.8-9.1C12.2,5.7,7.1,10,5.6,17.1z M5.4,24.3
		c1,5.4,4.5,8.6,9.2,10.8c1.8,0.9,2.5,0.4,2.6-1.8C17.7,26.4,13.9,23.4,5.4,24.3z M32.2,24c-1.9-0.1-3.5,0.1-5,1
		c-3.2,1.9-3.5,5-3.3,8.2c0,0.8-0.2,2,0.7,2.1c2.7,0.1,4.6-1.6,6.4-3.3c1.3-1.2,2.4-2.7,3.4-4.2C36.3,24.9,35.6,23.5,32.2,24z"/>
</g>
</svg>
