<?xml version="1.0" encoding="UTF-8"?>
<svg width="38px" height="39px" viewBox="0 0 38 39" version="1.1" xmlns="http://www.w3.org/2000/svg" xmlns:xlink="http://www.w3.org/1999/xlink">
    <!-- Generator: sketchtool 51.2 (57519) - http://www.bohemiancoding.com/sketch -->
    <title>6A79CAE7-DF11-4985-901D-E9A0AC2F2B14-909-0000FF7CFFE8B4A7</title>
    <desc>Created with sketchtool.</desc>
    <defs></defs>
    <g id="Homepage-CHECK" stroke="none" stroke-width="1" fill="none" fill-rule="evenodd">
        <g id="D_homepage_XL" transform="translate(-1226.000000, -5616.000000)" fill="#212B35" fill-rule="nonzero">
            <g id="footer-versie-2" transform="translate(-1.000000, 5551.000000)">
                <g id="Group-4" transform="translate(1.000000, 32.000000)">
                    <g id="Group" transform="translate(1226.000000, 0.000000)">
                        <g id="Group-70" transform="translate(0.000000, 33.312500)">
                            <path d="M34.8333333,0 L3.16666667,0 C1.41708333,0 0,1.42692419 0,3.18865741 L0,35.0752315 C0,36.8369647 1.41708333,38.2638889 3.16666667,38.2638889 L20.5833333,38.2638889 L20.5833333,23.9149306 L15.8333333,23.9149306 L15.8333333,17.5376157 L20.5833333,17.5376157 L20.5833333,13.4130874 C20.5833333,8.4706684 23.5805833,5.77944155 27.9600833,5.77944155 C30.058,5.77944155 31.8598333,5.93728009 32.3855,6.00743056 L32.3855,11.1730556 L29.3486667,11.1746499 C26.9673333,11.1746499 26.5065833,12.3145949 26.5065833,13.9854514 L26.5065833,17.5376157 L33.5365833,17.5376157 L31.95325,23.9149306 L26.5065833,23.9149306 L26.5065833,38.2638889 L34.8333333,38.2638889 C36.5829167,38.2638889 38,36.8369647 38,35.0752315 L38,3.18865741 C38,1.42692419 36.5829167,0 34.8333333,0 Z" id="facebook"></path>
                        </g>
                    </g>
                </g>
            </g>
        </g>
    </g>
</svg>