<?xml version="1.0" encoding="UTF-8"?>
<svg width="24px" height="20px" viewBox="0 0 24 20" version="1.1" xmlns="http://www.w3.org/2000/svg" xmlns:xlink="http://www.w3.org/1999/xlink">
    <!-- Generator: sketchtool 52.2 (67145) - http://www.bohemiancoding.com/sketch -->
    <title>B113764E-4750-4DF4-80D7-104C7B99DC7D</title>
    <desc>Created with sketchtool.</desc>
    <g id="Trippagina" stroke="none" stroke-width="1" fill="none" fill-rule="evenodd">
        <g id="Trip-Detail-program-Copy-2" transform="translate(-1168.000000, -6250.000000)" fill="#212B35" fill-rule="nonzero">
            <g id="Group-26" transform="translate(-2.000000, 6014.000000)">
                <g id="Group-14" transform="translate(305.000000, 82.000000)">
                    <g id="Group-10" transform="translate(54.000000, 137.000000)">
                        <g id="Group-13">
                            <g id="Group" transform="translate(679.000000, 17.000000)">
                                <g id="Group-62" transform="translate(132.000000, 0.000000)">
                                    <path d="M23,0 L1,0 C0.4,0 0,0.4 0,1 L0,4 C0,4.4 0.2,4.7 0.5,4.9 L11.5,10.9 C11.7,11 11.8,11 12,11 C12.2,11 12.3,11 12.5,10.9 L23.5,4.9 C23.8,4.7 24,4.4 24,4 L24,1 C24,0.4 23.6,0 23,0 Z" id="Shape"></path>
                                    <path d="M13.4,12.6564885 C13,12.9541985 12.5,13.0534351 12,13.0534351 C11.5,13.0534351 11,12.9541985 10.6,12.6564885 L0,7 L0,19.0076336 C0,19.6030534 0.4,20 1,20 L23,20 C23.6,20 24,19.6030534 24,19.0076336 L24,7 L13.4,12.6564885 Z" id="Shape"></path>
                                </g>
                            </g>
                        </g>
                    </g>
                </g>
            </g>
        </g>
    </g>
</svg>