<?xml version="1.0" encoding="utf-8"?>
<!-- Generator: Adobe Illustrator 23.0.5, SVG Export Plug-In . SVG Version: 6.00 Build 0)  -->
<svg version="1.1" id="Layer_1" xmlns="http://www.w3.org/2000/svg" xmlns:xlink="http://www.w3.org/1999/xlink" x="0px" y="0px"
	 viewBox="0 0 54 40.1" style="enable-background:new 0 0 54 40.1;" xml:space="preserve">
<style type="text/css">
	.st0{fill:#FFCF35;}
	.st1{fill:#E5A03E;}
</style>
<title>bad</title>
<path class="st0" d="M5.4,18V3c0.1-1.6-1.1-2.9-2.7-3c0,0,0,0,0,0l0,0C1.1,0.1-0.1,1.4,0,3c0,0,0,0,0,0v34.1c-0.1,1.6,1.1,2.9,2.7,3
	c0,0,0,0,0,0l0,0c1.6-0.1,2.8-1.4,2.7-3c0,0,0,0,0,0v-5.9h43.2v5.9c-0.1,1.6,1.1,2.9,2.7,3c0,0,0,0,0,0l0,0c1.6-0.1,2.8-1.4,2.7-3
	c0,0,0,0,0,0v-19C54,11.4,49.1,6,43,6H30c-2.5,0.1-4.4,2.2-4.3,4.7V18c0.1,2.9-2.1,5.5-5.1,5.6l-10,0.1c-3-0.1-5.3-2.6-5.2-5.6
	C5.4,18.1,5.4,18,5.4,18z"/>
<ellipse class="st1" cx="15.5" cy="11.1" rx="6.1" ry="6.7"/>
</svg>
