<?xml version="1.0" encoding="utf-8"?>
<!-- Generator: Adobe Illustrator 19.2.1, SVG Export Plug-In . SVG Version: 6.00 Build 0)  -->
<svg version="1.1" id="Layer_1" xmlns="http://www.w3.org/2000/svg" xmlns:xlink="http://www.w3.org/1999/xlink" x="0px" y="0px"
	 viewBox="0 0 30 26.9" style="enable-background:new 0 0 30 26.9;" xml:space="preserve">
<style type="text/css">
	.st0{display:none;opacity:0.4;}
	.st1{display:inline;}
	.st2{fill:#0A8DE9;}
	.st3{opacity:0.4;clip-path:url(#SVGID_2_);}
</style>
<title>65FF2F6B-7838-4182-BA4A-533C9ECAF0EA-504-0000113E2C8D3DD8</title>
<desc>Created with sketchtool.</desc>
<g id="Trip-overview-CHECK_1_" class="st0">
	<g id="D-trip_overview_1_" transform="translate(-235.000000, -3763.000000)" class="st1">
		<g id="Nieuwsbrief_1_" transform="translate(235.000000, 3763.000000)">
			<g id="Group-28_1_">
				<g id="Group-5_1_">
					<g id="Group-4_1_">
						<g id="pattern_1_" transform="translate(-74.478338, -20.000000)">
							<path class="st2" d="M1278.7,29.2c-14.9,0-29,5.7-39.7,16.1l-0.7,0.7c-9,8.7-20.5,13.3-32,13.9
								c-15.6-0.6-28.1-13.5-28.1-29.3c0-12.5,10.1-22.7,22.6-22.7c9.5,0,17.3,7.8,17.3,17.4c0,7.2-5.9,13.1-13.1,13.1
								c-5.3,0-9.7-4.4-9.7-9.7c0-3.9,3.1-7,7-7c2.7,0,4.8,2.2,4.8,4.9c0,2.1,1.7,3.8,3.8,3.8c2.1,0,3.8-1.7,3.8-3.8
								c0-6.9-5.6-12.5-12.4-12.5c-8.1,0-14.6,6.6-14.6,14.7c0,9.6,7.8,17.4,17.3,17.4c11.4,0,20.7-9.3,20.7-20.8
								c0-13.8-11.2-25-24.9-25c-16.6,0-30.2,13.6-30.2,30.3c0,8.2,2.7,15.7,7.2,21.9c-2.9-1.8-5.8-4-8.4-6.5l-0.7-0.7
								c-22.3-21.6-57.2-21.6-79.5,0l-0.7,0.7c-9.2,8.9-20.8,13.5-32.6,13.9c-15.8-0.3-28.6-13.3-28.6-29.3
								c0-12.5,10.1-22.7,22.6-22.7c9.5,0,17.3,7.8,17.3,17.4c0,7.2-5.9,13.1-13.1,13.1c-5.3,0-9.7-4.4-9.7-9.7c0-3.9,3.1-7,7-7
								c2.7,0,4.8,2.2,4.8,4.9c0,2.1,1.7,3.8,3.8,3.8c2.1,0,3.8-1.7,3.8-3.8c0-6.9-5.6-12.5-12.4-12.5c-8.1,0-14.6,6.6-14.6,14.7
								c0,9.6,7.8,17.4,17.3,17.4c11.4,0,20.7-9.3,20.7-20.8c0-13.8-11.2-25-24.9-25c-16.6,0-30.2,13.6-30.2,30.3
								c0,7.6,2.3,14.6,6.2,20.5c-2.2-1.5-4.3-3.2-6.3-5.1l-0.8-0.7c-22.3-21.6-57.2-21.6-79.5,0l-0.8,0.7c-9.3,9-21.2,13.6-33.1,14
								c-16,0-29.1-13.2-29.1-29.3c0-12.5,10.1-22.7,22.6-22.7c9.5,0,17.3,7.8,17.3,17.4c0,7.2-5.9,13.1-13.1,13.1
								c-5.3,0-9.7-4.4-9.7-9.7c0-3.9,3.1-7,7-7c2.7,0,4.8,2.2,4.8,4.9c0,2.1,1.7,3.8,3.8,3.8s3.8-1.7,3.8-3.8
								c0-6.9-5.6-12.5-12.4-12.5c-8.1,0-14.6,6.6-14.6,14.7c0,9.6,7.8,17.4,17.3,17.4c11.4,0,20.7-9.3,20.7-20.8
								c0-13.8-11.2-25-24.9-25c-16.6,0-30.2,13.6-30.2,30.3c0,7,2,13.6,5.4,19.2c-1.5-1.2-3.1-2.4-4.5-3.8l-0.8-0.7
								c-22.3-21.6-57.2-21.6-79.5,0l-0.8,0.7c-9.5,9.2-21.7,13.9-33.9,14c-0.1,0-0.1,0-0.2,0c-16.1,0-29.1-13.1-29.1-29.3
								C725.4,18.2,735.5,8,748,8c9.5,0,17.3,7.8,17.3,17.4c0,7.2-5.9,13.1-13.1,13.1c-5.3,0-9.7-4.4-9.7-9.7c0-3.9,3.1-7,7-7
								c2.7,0,4.8,2.2,4.8,4.9c0,2.1,1.7,3.8,3.8,3.8s3.8-1.7,3.8-3.8c0-6.9-5.6-12.5-12.4-12.5c-8.1,0-14.6,6.6-14.6,14.7
								c0,9.6,7.8,17.4,17.3,17.4c11.4,0,20.7-9.3,20.7-20.8c0-13.8-11.2-25-24.9-25c-16.6,0-30.2,13.6-30.2,30.3
								c0,6.3,1.6,12.3,4.4,17.5c-0.8-0.7-1.7-1.4-2.5-2.2l-0.7-0.7c-10.1-9.7-23.1-15.4-37-16c-0.5-0.3-1.1-0.4-1.7-0.4
								c-14.9,0-29,5.7-39.7,16.1l-0.7,0.7c-9,8.7-20.5,13.3-32,13.9c-15.6-0.6-28.1-13.5-28.1-29.3c0-12.5,10.1-22.7,22.6-22.7
								c9.5,0,17.3,7.8,17.3,17.4c0,7.2-5.9,13.1-13.1,13.1c-5.3,0-9.7-4.4-9.7-9.7c0-3.9,3.1-7,7-7c2.7,0,4.8,2.2,4.8,4.9
								c0,2.1,1.7,3.8,3.8,3.8s3.8-1.7,3.8-3.8c0-6.9-5.6-12.5-12.4-12.5c-8.1,0-14.6,6.6-14.6,14.7c0,9.6,7.8,17.4,17.3,17.4
								c11.4,0,20.7-9.3,20.7-20.8c0-13.8-11.2-25-24.9-25c-16.6,0-30.2,13.6-30.2,30.3c0,8.2,2.7,15.7,7.2,21.9
								c-2.9-1.8-5.8-4-8.4-6.5l-0.7-0.7c-22.3-21.6-57.2-21.6-79.5,0l-0.7,0.7c-9.2,8.9-20.8,13.5-32.6,13.9
								c-15.8-0.3-28.6-13.3-28.6-29.3c0-12.5,10.1-22.7,22.6-22.7c9.5,0,17.3,7.8,17.3,17.4c0,7.2-5.9,13.1-13.1,13.1
								c-5.3,0-9.7-4.4-9.7-9.7c0-3.9,3.1-7,7-7c2.7,0,4.8,2.2,4.8,4.9c0,2.1,1.7,3.8,3.8,3.8c2.1,0,3.8-1.7,3.8-3.8
								c0-6.9-5.6-12.5-12.4-12.5c-8.1,0-14.6,6.6-14.6,14.7c0,9.6,7.8,17.4,17.3,17.4c11.4,0,20.7-9.3,20.7-20.8
								c0-13.8-11.2-25-24.9-25c-16.6,0-30.2,13.6-30.2,30.3c0,7.6,2.3,14.6,6.2,20.5c-2.2-1.5-4.3-3.2-6.3-5.1l-0.8-0.7
								c-22.3-21.6-57.2-21.6-79.5,0l-0.8,0.7c-9.3,9-21.2,13.6-33.1,14c-16,0-29.1-13.2-29.1-29.3C277.9,18.2,288,8,300.5,8
								c9.5,0,17.3,7.8,17.3,17.4c0,7.2-5.9,13.1-13.1,13.1c-5.3,0-9.7-4.4-9.7-9.7c0-3.9,3.1-7,7-7c2.7,0,4.8,2.2,4.8,4.9
								c0,2.1,1.7,3.8,3.8,3.8c2.1,0,3.8-1.7,3.8-3.8c0-6.9-5.6-12.5-12.4-12.5c-8.1,0-14.6,6.6-14.6,14.7c0,9.6,7.8,17.4,17.3,17.4
								c11.4,0,20.7-9.3,20.7-20.8c0-13.8-11.2-25-24.9-25c-16.6,0-30.2,13.6-30.2,30.3c0,7,2,13.6,5.4,19.2
								c-1.5-1.2-3.1-2.4-4.5-3.8l-0.8-0.7c-22.3-21.6-57.2-21.6-79.5,0l-0.8,0.7c-9.5,9.2-21.7,13.9-33.9,14c-0.1,0-0.1,0-0.2,0
								c-16.1,0-29.1-13.1-29.1-29.3c0-12.5,10.1-22.7,22.6-22.7c9.5,0,17.3,7.8,17.3,17.4c0,7.2-5.9,13.1-13.1,13.1
								c-5.3,0-9.7-4.4-9.7-9.7c0-3.9,3.1-7,7-7c2.7,0,4.8,2.2,4.8,4.9c0,2.1,1.7,3.8,3.8,3.8s3.8-1.7,3.8-3.8
								c0-6.9-5.6-12.5-12.4-12.5c-8.1,0-14.6,6.6-14.6,14.7c0,9.6,7.8,17.4,17.3,17.4c11.4,0,20.7-9.3,20.7-20.8
								c0-13.8-11.2-25-24.9-25c-16.6,0-30.2,13.6-30.2,30.3c0,6.3,1.6,12.3,4.4,17.5c-0.8-0.7-1.7-1.4-2.5-2.2l-0.7-0.7
								c-10.7-10.4-24.8-16.1-39.7-16.1c-2.1,0-3.8,1.7-3.8,3.8s1.7,3.8,3.8,3.8c12.9,0,25.1,5,34.5,14l0.8,0.7
								c22.3,21.6,57.2,21.6,79.5,0l0.7-0.7c19.3-18.7,49.6-18.7,68.9,0l0.7,0.7C277,62.6,291.3,68,305.6,68
								c14.3,0,28.6-5.4,39.7-16.2l0.8-0.7c19.3-18.7,49.6-18.7,68.9,0l0.8,0.7c11.7,11.3,26.8,16.6,41.7,16.1c0.2,0,0.3,0,0.5,0
								c0.1,0,0.2-0.1,0.3-0.1c13.4-0.6,26.6-6,37-16l0.7-0.7c19.3-18.7,49.6-18.7,68.9,0l0.7,0.7c11.8,11.4,27.1,16.7,42.2,16
								c0.3,0,0.7,0,1,0c0.2,0,0.4-0.1,0.6-0.1c12.9-0.9,25.6-6.2,35.6-16l0.7-0.7c8.7-8.4,20-13.3,32-13.9c0.5,0.2,0.9,0.3,1.5,0.3
								c12.9,0,25.1,5,34.5,14l0.8,0.7c22.3,21.6,57.2,21.6,79.5,0l0.7-0.7c19.3-18.7,49.6-18.7,68.9,0l0.7,0.7
								c11.1,10.8,25.4,16.2,39.7,16.2s28.6-5.4,39.7-16.2l0.8-0.7c19.3-18.7,49.6-18.7,68.9,0l0.8,0.7
								c11.7,11.3,26.8,16.6,41.7,16.1c0.2,0,0.3,0,0.5,0c0.1,0,0.2-0.1,0.3-0.1c13.4-0.6,26.6-6,37-16l0.7-0.7
								c19.3-18.7,49.6-18.7,68.9,0l0.7,0.7c11.8,11.4,27.1,16.7,42.2,16c0.3,0,0.7,0,1,0c0.2,0,0.4-0.1,0.6-0.1
								c12.9-0.9,25.6-6.2,35.6-16l0.7-0.7c9.3-9,21.5-14,34.5-14c2.1,0,3.8-1.7,3.8-3.8C1282.5,30.9,1280.8,29.2,1278.7,29.2z"/>
							<path class="st2" d="M1201.7,95.2c-14.9,0-29,5.7-39.7,16.1l-0.8,0.7c-9,8.7-20.5,13.3-32.1,13.9
								c-15.6-0.6-28.1-13.5-28.1-29.3c0-12.5,10.1-22.7,22.6-22.7c9.5,0,17.3,7.8,17.3,17.4c0,7.2-5.9,13.1-13.1,13.1
								c-5.3,0-9.7-4.4-9.7-9.7c0-3.9,3.1-7,7-7c2.7,0,4.8,2.2,4.8,4.9c0,2.1,1.7,3.8,3.8,3.8c2.1,0,3.8-1.7,3.8-3.8
								c0-6.9-5.6-12.5-12.4-12.5c-8.1,0-14.6,6.6-14.6,14.7c0,9.6,7.8,17.4,17.3,17.4c11.4,0,20.7-9.3,20.7-20.8
								c0-13.8-11.2-25-24.9-25c-16.6,0-30.2,13.6-30.2,30.3c0,8.2,2.7,15.7,7.2,21.9c-2.9-1.8-5.8-4-8.4-6.5l-0.8-0.7
								c-22.3-21.6-57.2-21.6-79.5,0l-0.8,0.7c-9.2,8.9-20.8,13.5-32.6,13.9c-15.8-0.3-28.5-13.3-28.5-29.3
								c0-12.5,10.1-22.7,22.6-22.7c9.5,0,17.3,7.8,17.3,17.4c0,7.2-5.9,13.1-13.1,13.1c-5.3,0-9.7-4.4-9.7-9.7c0-3.9,3.1-7,7-7
								c2.7,0,4.8,2.2,4.8,4.9c0,2.1,1.7,3.8,3.8,3.8s3.8-1.7,3.8-3.8c0-6.9-5.6-12.5-12.4-12.5c-8.1,0-14.6,6.6-14.6,14.7
								c0,9.6,7.8,17.4,17.3,17.4c11.4,0,20.7-9.3,20.7-20.8c0-13.8-11.2-25-24.9-25c-16.6,0-30.2,13.6-30.2,30.3
								c0,7.6,2.3,14.6,6.2,20.5c-2.2-1.5-4.3-3.2-6.3-5.1l-0.8-0.7c-22.3-21.6-57.2-21.6-79.5,0l-0.7,0.7c-9.3,9-21.2,13.6-33.2,14
								c-16-0.1-29-13.2-29-29.3c0-12.5,10.1-22.7,22.6-22.7c9.5,0,17.3,7.8,17.3,17.4c0,7.2-5.9,13.1-13.1,13.1
								c-5.3,0-9.7-4.4-9.7-9.7c0-3.9,3.1-7,7-7c2.7,0,4.8,2.2,4.8,4.9c0,2.1,1.7,3.8,3.8,3.8s3.8-1.7,3.8-3.8
								c0-6.9-5.6-12.5-12.4-12.5c-8.1,0-14.6,6.6-14.6,14.7c0,9.6,7.8,17.4,17.3,17.4c11.4,0,20.7-9.3,20.7-20.8
								c0-13.8-11.2-25-24.9-25c-16.6,0-30.2,13.6-30.2,30.3c0,7,2,13.6,5.4,19.2c-1.5-1.2-3.1-2.4-4.5-3.8l-0.8-0.7
								c-22.3-21.6-57.2-21.6-79.5,0l-0.7,0.7c-9.5,9.2-21.7,13.9-33.9,14c-0.1,0-0.1,0-0.2,0c-16.1,0-29.1-13.1-29.1-29.3
								c0-12.5,10.1-22.7,22.6-22.7c9.5,0,17.3,7.8,17.3,17.4c0,7.2-5.9,13.1-13.1,13.1c-5.3,0-9.7-4.4-9.7-9.7c0-3.9,3.1-7,7-7
								c2.7,0,4.8,2.2,4.8,4.9c0,2.1,1.7,3.8,3.8,3.8s3.8-1.7,3.8-3.8c0-6.9-5.6-12.5-12.4-12.5c-8.1,0-14.6,6.6-14.6,14.7
								c0,9.6,7.8,17.4,17.3,17.4c11.4,0,20.7-9.3,20.7-20.8c0-13.8-11.2-25-24.9-25c-16.6,0-30.2,13.6-30.2,30.3
								c0,6.3,1.6,12.3,4.4,17.5c-0.8-0.7-1.7-1.4-2.5-2.2l-0.8-0.7c-10.1-9.7-23.1-15.4-37-16c-0.5-0.3-1.1-0.4-1.7-0.4
								c-14.9,0-29,5.7-39.7,16.1l-0.8,0.7c-9,8.7-20.5,13.3-32.1,13.9c-15.6-0.6-28.1-13.5-28.1-29.3c0-12.5,10.1-22.7,22.6-22.7
								c9.5,0,17.3,7.8,17.3,17.4c0,7.2-5.9,13.1-13.1,13.1c-5.3,0-9.7-4.4-9.7-9.7c0-3.9,3.1-7,7-7c2.7,0,4.8,2.2,4.8,4.9
								c0,2.1,1.7,3.8,3.8,3.8s3.8-1.7,3.8-3.8c0-6.9-5.6-12.5-12.4-12.5c-8.1,0-14.6,6.6-14.6,14.7c0,9.6,7.8,17.4,17.3,17.4
								c11.4,0,20.7-9.3,20.7-20.8c0-13.8-11.2-25-24.9-25c-16.6,0-30.2,13.6-30.2,30.3c0,8.2,2.7,15.7,7.2,21.9
								c-2.9-1.8-5.8-4-8.4-6.5l-0.8-0.7c-22.3-21.6-57.2-21.6-79.5,0l-0.8,0.7c-9.2,8.9-20.8,13.5-32.6,13.9
								c-15.8-0.3-28.5-13.3-28.5-29.3c0-12.5,10.1-22.7,22.6-22.7c9.5,0,17.3,7.8,17.3,17.4c0,7.2-5.9,13.1-13.1,13.1
								c-5.3,0-9.7-4.4-9.7-9.7c0-3.9,3.1-7,7-7c2.7,0,4.8,2.2,4.8,4.9c0,2.1,1.7,3.8,3.8,3.8c2.1,0,3.8-1.7,3.8-3.8
								c0-6.9-5.6-12.5-12.4-12.5c-8.1,0-14.6,6.6-14.6,14.7c0,9.6,7.8,17.4,17.3,17.4c11.4,0,20.7-9.3,20.7-20.8
								c0-13.8-11.2-25-24.9-25c-16.6,0-30.2,13.6-30.2,30.3c0,7.6,2.3,14.6,6.2,20.5c-2.2-1.5-4.3-3.2-6.3-5.1l-0.8-0.7
								c-22.3-21.6-57.2-21.6-79.5,0l-0.7,0.7c-9.3,9-21.2,13.6-33.2,14c-16-0.1-29-13.2-29-29.3c0-12.5,10.1-22.7,22.6-22.7
								c9.5,0,17.3,7.8,17.3,17.4c0,7.2-5.9,13.1-13.1,13.1c-5.3,0-9.7-4.4-9.7-9.7c0-3.9,3.1-7,7-7c2.7,0,4.8,2.2,4.8,4.9
								c0,2.1,1.7,3.8,3.8,3.8s3.8-1.7,3.8-3.8c0-6.9-5.6-12.5-12.4-12.5c-8.1,0-14.6,6.6-14.6,14.7c0,9.6,7.8,17.4,17.3,17.4
								c11.4,0,20.7-9.3,20.7-20.8c0-13.8-11.2-25-24.9-25c-16.6,0-30.2,13.6-30.2,30.3c0,7,2,13.6,5.4,19.2
								c-1.5-1.2-3.1-2.4-4.5-3.8l-0.8-0.7c-22.3-21.6-57.2-21.6-79.5,0l-0.7,0.7c-9.5,9.2-21.7,13.9-33.9,14c-0.1,0-0.1,0-0.2,0
								c-16.1,0-29.1-13.1-29.1-29.3c0-12.5,10.1-22.7,22.6-22.7c9.5,0,17.3,7.8,17.3,17.4c0,7.2-5.9,13.1-13.1,13.1
								c-5.3,0-9.7-4.4-9.7-9.7c0-3.9,3.1-7,7-7c2.7,0,4.8,2.2,4.8,4.9c0,2.1,1.7,3.8,3.8,3.8c2.1,0,3.8-1.7,3.8-3.8
								c0-6.9-5.6-12.5-12.4-12.5c-8.1,0-14.6,6.6-14.6,14.7c0,9.6,7.8,17.4,17.3,17.4c11.4,0,20.7-9.3,20.7-20.8
								c0-13.8-11.2-25-24.9-25c-16.6,0-30.2,13.6-30.2,30.3c0,6.3,1.6,12.3,4.4,17.5c-0.8-0.7-1.7-1.4-2.5-2.2L43,112
								C32.8,100.5,18.7,94.8,3.8,94.8c-2.1,0-3.8,1.7-3.8,3.8c0,2.1,1.7,3.8,3.8,3.8c12.9,0,25.1,5,34.5,14l0.8,0.7
								c22.3,21.6,57.2,21.6,79.5,0l0.8-0.7c19.3-18.7,49.6-18.7,68.9,0l0.7,0.7c11.5,11.1,26.4,16.5,41.1,16.1l0,0l0,0
								c13.8-0.3,27.5-5.7,38.3-16.1l0.8-0.7c19.3-18.7,49.6-18.7,68.9,0l0.7,0.7c11.6,11.3,26.7,16.6,41.7,16.1c0.2,0,0.3,0,0.5,0
								c0.1,0,0.2-0.1,0.3-0.1c13.4-0.7,26.5-6,37-16l0.8-0.7c19.3-18.7,49.6-18.7,68.9,0l0.8,0.7c11.1,10.8,25.4,16.2,39.7,16.2
								c0.8,0,1.6-0.1,2.5-0.1c0.3,0,0.7,0,1,0c0.2,0,0.4-0.1,0.6-0.1c12.9-0.9,25.5-6.2,35.6-16l0.8-0.7c8.7-8.4,20-13.3,32-13.9
								c0.5,0.2,0.9,0.3,1.5,0.3c12.9,0,25.1,5,34.5,14l0.8,0.7c22.3,21.6,57.2,21.6,79.5,0l0.8-0.7c19.3-18.7,49.6-18.7,68.9,0
								l0.7,0.7c11.5,11.1,26.4,16.5,41.1,16.1l0,0l0,0c13.8-0.3,27.5-5.7,38.3-16.1l0.8-0.7c19.3-18.7,49.6-18.7,68.9,0l0.7,0.7
								c11.6,11.3,26.7,16.6,41.7,16.1c0.2,0,0.3,0,0.5,0c0.1,0,0.2-0.1,0.3-0.1c13.4-0.7,26.5-6,37-16l0.8-0.7
								c19.3-18.7,49.6-18.7,68.9,0l0.8,0.7c11.1,10.8,25.4,16.2,39.7,16.2c0.8,0,1.6-0.1,2.5-0.1c0.3,0,0.7,0,1,0
								c0.2,0,0.4-0.1,0.6-0.1c12.9-0.9,25.5-6.2,35.6-16l0.8-0.7c9.3-9,21.5-14,34.4-14c2.1,0,3.8-1.7,3.8-3.8
								C1205.5,96.9,1203.8,95.2,1201.7,95.2z"/>
							<path class="st2" d="M1278.7,160.4c-14.9,0-29,5.7-39.7,16.1l-0.7,0.7c-9,8.7-20.5,13.3-32,13.9
								c-15.6-0.6-28.1-13.5-28.1-29.3c0-12.5,10.1-22.7,22.6-22.7c9.5,0,17.3,7.8,17.3,17.4c0,7.2-5.9,13.1-13.1,13.1
								c-5.3,0-9.7-4.4-9.7-9.8c0-3.9,3.1-7,7-7c2.7,0,4.8,2.2,4.8,4.9c0,2.1,1.7,3.8,3.8,3.8c2.1,0,3.8-1.7,3.8-3.8
								c0-6.9-5.6-12.5-12.4-12.5c-8,0-14.6,6.6-14.6,14.7c0,9.6,7.8,17.4,17.3,17.4c11.4,0,20.7-9.3,20.7-20.8
								c0-13.8-11.2-25-24.9-25c-16.6,0-30.2,13.6-30.2,30.3c0,8.2,2.7,15.7,7.2,21.9c-2.9-1.8-5.8-4-8.4-6.5l-0.7-0.7
								c-22.3-21.6-57.2-21.6-79.5,0l-0.7,0.7c-9.2,8.9-20.8,13.5-32.6,13.9c-15.8-0.3-28.6-13.3-28.6-29.3
								c0-12.5,10.1-22.7,22.6-22.7c9.5,0,17.3,7.8,17.3,17.4c0,7.2-5.9,13.1-13.1,13.1c-5.3,0-9.7-4.4-9.7-9.8c0-3.9,3.1-7,7-7
								c2.7,0,4.8,2.2,4.8,4.9c0,2.1,1.7,3.8,3.8,3.8c2.1,0,3.8-1.7,3.8-3.8c0-6.9-5.6-12.5-12.4-12.5c-8,0-14.6,6.6-14.6,14.7
								c0,9.6,7.8,17.4,17.3,17.4c11.4,0,20.7-9.3,20.7-20.8c0-13.8-11.2-25-24.9-25c-16.6,0-30.2,13.6-30.2,30.3
								c0,7.6,2.3,14.6,6.2,20.5c-2.2-1.5-4.3-3.2-6.3-5.1l-0.8-0.7c-22.3-21.6-57.2-21.6-79.5,0l-0.7,0.7c-9.3,9-21.2,13.6-33.1,14
								c-16,0-29.1-13.2-29.1-29.3c0-12.5,10.1-22.7,22.6-22.7c9.5,0,17.3,7.8,17.3,17.4c0,7.2-5.9,13.1-13.1,13.1
								c-5.3,0-9.7-4.4-9.7-9.8c0-3.9,3.1-7,7-7c2.7,0,4.8,2.2,4.8,4.9c0,2.1,1.7,3.8,3.8,3.8s3.8-1.7,3.8-3.8
								c0-6.9-5.6-12.5-12.4-12.5c-8.1,0-14.6,6.6-14.6,14.7c0,9.6,7.8,17.4,17.3,17.4c11.4,0,20.7-9.3,20.7-20.8
								c0-13.8-11.2-25-24.9-25c-16.6,0-30.2,13.6-30.2,30.3c0,7,2,13.6,5.4,19.2c-1.5-1.2-3.1-2.4-4.5-3.8l-0.8-0.7
								c-22.3-21.6-57.2-21.6-79.5,0l-0.7,0.7c-9.5,9.2-21.7,13.9-33.9,14c-0.1,0-0.1,0-0.2,0c-16.1,0-29.2-13.1-29.2-29.3
								c0-12.5,10.1-22.7,22.6-22.7c9.5,0,17.3,7.8,17.3,17.4c0,7.2-5.9,13.1-13.1,13.1c-5.3,0-9.7-4.4-9.7-9.8c0-3.9,3.1-7,7-7
								c2.7,0,4.8,2.2,4.8,4.9c0,2.1,1.7,3.8,3.8,3.8s3.8-1.7,3.8-3.8c0-6.9-5.6-12.5-12.4-12.5c-8.1,0-14.6,6.6-14.6,14.7
								c0,9.6,7.8,17.4,17.3,17.4c11.4,0,20.7-9.3,20.7-20.8c0-13.8-11.2-25-24.9-25c-16.6,0-30.2,13.6-30.2,30.3
								c0,6.3,1.6,12.3,4.4,17.5c-0.8-0.7-1.7-1.4-2.5-2.2l-0.8-0.7c-10.1-9.7-23.1-15.4-37-16c-0.5-0.3-1.1-0.4-1.7-0.4
								c-14.9,0-29,5.7-39.7,16.1l-0.7,0.7c-9,8.7-20.5,13.3-32,13.9c-15.6-0.6-28.1-13.5-28.1-29.3c0-12.5,10.1-22.7,22.6-22.7
								c9.5,0,17.3,7.8,17.3,17.4c0,7.2-5.9,13.1-13.1,13.1c-5.3,0-9.7-4.4-9.7-9.8c0-3.9,3.1-7,7-7c2.7,0,4.8,2.2,4.8,4.9
								c0,2.1,1.7,3.8,3.8,3.8s3.8-1.7,3.8-3.8c0-6.9-5.6-12.5-12.4-12.5c-8,0-14.6,6.6-14.6,14.7c0,9.6,7.8,17.4,17.3,17.4
								c11.4,0,20.7-9.3,20.7-20.8c0-13.8-11.2-25-24.9-25c-16.6,0-30.2,13.6-30.2,30.3c0,8.2,2.7,15.7,7.2,21.9
								c-2.9-1.8-5.8-4-8.4-6.5l-0.7-0.7c-22.3-21.6-57.2-21.6-79.5,0L490,177c-9.2,8.9-20.8,13.5-32.6,13.9
								c-15.8-0.3-28.6-13.3-28.6-29.3c0-12.5,10.1-22.7,22.6-22.7c9.5,0,17.3,7.8,17.3,17.4c0,7.2-5.9,13.1-13.1,13.1
								c-5.3,0-9.7-4.4-9.7-9.8c0-3.9,3.1-7,7-7c2.7,0,4.8,2.2,4.8,4.9c0,2.1,1.7,3.8,3.8,3.8c2.1,0,3.8-1.7,3.8-3.8
								c0-6.9-5.6-12.5-12.4-12.5c-8,0-14.6,6.6-14.6,14.7c0,9.6,7.8,17.4,17.3,17.4c11.4,0,20.7-9.3,20.7-20.8
								c0-13.8-11.2-25-24.9-25c-16.6,0-30.2,13.6-30.2,30.3c0,7.6,2.3,14.6,6.2,20.5c-2.2-1.5-4.3-3.2-6.3-5.1l-0.8-0.7
								c-22.3-21.6-57.2-21.6-79.5,0l-0.7,0.7c-9.3,9-21.2,13.6-33.1,14c-16,0-29.1-13.2-29.1-29.3c0-12.5,10.1-22.7,22.6-22.7
								c9.5,0,17.3,7.8,17.3,17.4c0,7.2-5.9,13.1-13.1,13.1c-5.3,0-9.7-4.4-9.7-9.8c0-3.9,3.1-7,7-7c2.7,0,4.8,2.2,4.8,4.9
								c0,2.1,1.7,3.8,3.8,3.8s3.8-1.7,3.8-3.8c0-6.9-5.6-12.5-12.4-12.5c-8.1,0-14.6,6.6-14.6,14.7c0,9.6,7.8,17.4,17.3,17.4
								c11.4,0,20.7-9.3,20.7-20.8c0-13.8-11.2-25-24.9-25c-16.6,0-30.2,13.6-30.2,30.3c0,7,2,13.6,5.4,19.2
								c-1.5-1.2-3.1-2.4-4.5-3.8l-0.8-0.7c-22.3-21.6-57.2-21.6-79.5,0l-0.7,0.7c-9.5,9.2-21.7,13.9-33.9,14c-0.1,0-0.1,0-0.2,0
								c-16.1,0-29.2-13.1-29.2-29.3c0-12.5,10.1-22.7,22.6-22.7c9.5,0,17.3,7.8,17.3,17.4c0,7.2-5.9,13.1-13.1,13.1
								c-5.3,0-9.7-4.4-9.7-9.8c0-3.9,3.1-7,7-7c2.7,0,4.8,2.2,4.8,4.9c0,2.1,1.7,3.8,3.8,3.8s3.8-1.7,3.8-3.8
								c0-6.9-5.6-12.5-12.4-12.5c-8.1,0-14.6,6.6-14.6,14.7c0,9.6,7.8,17.4,17.3,17.4c11.4,0,20.7-9.3,20.7-20.8
								c0-13.8-11.2-25-24.9-25c-16.6,0-30.2,13.6-30.2,30.3c0,6.3,1.6,12.3,4.4,17.5c-0.8-0.7-1.7-1.4-2.5-2.2l-0.8-0.7
								C109.9,165.7,95.7,160,80.9,160c-2.1,0-3.8,1.7-3.8,3.8s1.7,3.8,3.8,3.8c12.9,0,25.1,5,34.5,14l0.7,0.7
								c22.3,21.6,57.2,21.6,79.5,0l0.7-0.7c19.3-18.7,49.6-18.7,68.9,0l0.8,0.7c11.1,10.8,25.4,16.2,39.7,16.2
								c14.3,0,28.6-5.4,39.7-16.2l0.7-0.7c19.3-18.7,49.6-18.7,68.9,0l0.8,0.7c11.7,11.3,26.8,16.6,41.7,16.1c0.2,0,0.3,0,0.5,0
								c0.1,0,0.2-0.1,0.3-0.1c13.4-0.6,26.6-6,37-16l0.7-0.7c19.3-18.7,49.6-18.7,68.9,0l0.7,0.7c11.8,11.4,27.1,16.7,42.2,16
								c0.3,0,0.7,0.1,1,0.1c0.2,0,0.4-0.1,0.6-0.1c12.9-0.9,25.6-6.2,35.6-16l0.7-0.7c8.7-8.4,20-13.3,32-13.9
								c0.5,0.2,0.9,0.3,1.5,0.3c12.9,0,25.1,5,34.5,14l0.7,0.7c22.3,21.6,57.2,21.6,79.5,0l0.7-0.7c19.3-18.7,49.6-18.7,68.9,0
								l0.8,0.7c11.1,10.8,25.4,16.2,39.7,16.2s28.6-5.4,39.7-16.2l0.7-0.7c19.3-18.7,49.6-18.7,68.9,0l0.8,0.7
								c11.7,11.3,26.8,16.6,41.7,16.1c0.2,0,0.3,0,0.5,0c0.1,0,0.2-0.1,0.3-0.1c13.4-0.6,26.6-6,37-16l0.7-0.7
								c19.3-18.7,49.6-18.7,68.9,0l0.7,0.7c11.8,11.4,27.1,16.7,42.2,16c0.3,0,0.7,0.1,1,0.1c0.2,0,0.4-0.1,0.6-0.1
								c12.9-0.9,25.6-6.2,35.6-16l0.7-0.7c9.3-9,21.5-14,34.5-14c2.1,0,3.8-1.7,3.8-3.8C1282.5,162.1,1280.8,160.4,1278.7,160.4z"
								/>
						</g>
					</g>
				</g>
			</g>
		</g>
	</g>
</g>
<g>
	<defs>
		<rect id="SVGID_1_" width="30" height="26.9"/>
	</defs>
	<clipPath id="SVGID_2_">
		<use xlink:href="#SVGID_1_"  style="overflow:visible;"/>
	</clipPath>
	<g id="Trip-overview-CHECK_2_" class="st3">
		<g id="D-trip_overview_2_" transform="translate(-235.000000, -3763.000000)">
			<g id="Nieuwsbrief_2_" transform="translate(235.000000, 3763.000000)">
				<g id="Group-28_2_">
					<g id="Group-5_2_">
						<g id="Group-4_2_">
							<g id="pattern_2_" transform="translate(-74.478338, -20.000000)">
								<path class="st2" d="M285,26c-3,0-5.8,1.1-7.9,3.2l-0.1,0.1c-1.8,1.7-4.1,2.7-6.4,2.8c-3.1-0.1-5.6-2.7-5.6-5.9
									c0-2.5,2-4.5,4.5-4.5c1.9,0,3.4,1.6,3.4,3.5c0,1.4-1.2,2.6-2.6,2.6c-1.1,0-1.9-0.9-1.9-1.9c0-0.8,0.6-1.4,1.4-1.4
									c0.5,0,1,0.4,1,1c0,0.4,0.3,0.8,0.8,0.8s0.8-0.3,0.8-0.8c0-1.4-1.1-2.5-2.5-2.5c-1.6,0-2.9,1.3-2.9,2.9
									c0,1.9,1.6,3.5,3.4,3.5c2.3,0,4.1-1.9,4.1-4.2c0-2.8-2.2-5-4.9-5c-3.3,0-6,2.7-6,6.1c0,1.6,0.5,3.1,1.4,4.4
									c-0.6-0.4-1.2-0.8-1.7-1.3l-0.1-0.1c-4.4-4.3-11.4-4.3-15.8,0l-0.1,0.1c-1.8,1.8-4.1,2.7-6.5,2.8c-3.1-0.1-5.7-2.7-5.7-5.9
									c0-2.5,2-4.5,4.5-4.5c1.9,0,3.4,1.6,3.4,3.5c0,1.4-1.2,2.6-2.6,2.6c-1.1,0-1.9-0.9-1.9-1.9c0-0.8,0.6-1.4,1.4-1.4
									c0.5,0,1,0.4,1,1c0,0.4,0.3,0.8,0.8,0.8c0.4,0,0.8-0.3,0.8-0.8c0-1.4-1.1-2.5-2.5-2.5c-1.6,0-2.9,1.3-2.9,2.9
									c0,1.9,1.6,3.5,3.4,3.5c2.3,0,4.1-1.9,4.1-4.2c0-2.8-2.2-5-4.9-5c-3.3,0-6,2.7-6,6.1c0,1.5,0.5,2.9,1.2,4.1
									c-0.4-0.3-0.9-0.6-1.3-1l-0.2-0.1c-4.4-4.3-11.4-4.3-15.8,0l-0.2,0.1c-1.8,1.8-4.2,2.7-6.6,2.8c-3.2,0-5.8-2.6-5.8-5.9
									c0-2.5,2-4.5,4.5-4.5c1.9,0,3.4,1.6,3.4,3.5c0,1.4-1.2,2.6-2.6,2.6c-1.1,0-1.9-0.9-1.9-1.9c0-0.8,0.6-1.4,1.4-1.4
									c0.5,0,1,0.4,1,1c0,0.4,0.3,0.8,0.8,0.8c0.4,0,0.8-0.3,0.8-0.8c0-1.4-1.1-2.5-2.5-2.5c-1.6,0-2.9,1.3-2.9,2.9
									c0,1.9,1.6,3.5,3.4,3.5c2.3,0,4.1-1.9,4.1-4.2c0-2.8-2.2-5-4.9-5c-3.3,0-6,2.7-6,6.1c0,1.4,0.4,2.7,1.1,3.8
									c-0.3-0.2-0.6-0.5-0.9-0.8l-0.2-0.1c-4.4-4.3-11.4-4.3-15.8,0l-0.2,0.1c-1.9,1.8-4.3,2.8-6.7,2.8c0,0,0,0,0,0
									c-3.2,0-5.8-2.6-5.8-5.9c0-2.6,2-4.6,4.5-4.6c1.9,0,3.4,1.6,3.4,3.5c0,1.4-1.2,2.6-2.6,2.6c-1.1,0-1.9-0.9-1.9-1.9
									c0-0.8,0.6-1.4,1.4-1.4c0.5,0,1,0.4,1,1c0,0.4,0.3,0.8,0.8,0.8c0.4,0,0.8-0.3,0.8-0.8c0-1.4-1.1-2.5-2.5-2.5
									c-1.6,0-2.9,1.3-2.9,2.9c0,1.9,1.6,3.5,3.4,3.5c2.3,0,4.1-1.9,4.1-4.2c0-2.8-2.2-5-4.9-5c-3.3,0-6,2.7-6,6.1
									c0,1.3,0.3,2.5,0.9,3.5c-0.2-0.1-0.3-0.3-0.5-0.4l-0.1-0.1c-2-1.9-4.6-3.1-7.4-3.2c-0.1-0.1-0.2-0.1-0.3-0.1
									c-3,0-5.8,1.1-7.9,3.2l-0.1,0.1c-1.8,1.7-4.1,2.7-6.4,2.8c-3.1-0.1-5.6-2.7-5.6-5.9c0-2.5,2-4.5,4.5-4.5
									c1.9,0,3.4,1.6,3.4,3.5c0,1.4-1.2,2.6-2.6,2.6c-1.1,0-1.9-0.9-1.9-1.9c0-0.8,0.6-1.4,1.4-1.4c0.5,0,1,0.4,1,1
									c0,0.4,0.3,0.8,0.8,0.8c0.4,0,0.8-0.3,0.8-0.8c0-1.4-1.1-2.5-2.5-2.5c-1.6,0-2.9,1.3-2.9,2.9c0,1.9,1.6,3.5,3.4,3.5
									c2.3,0,4.1-1.9,4.1-4.2c0-2.8-2.2-5-4.9-5c-3.3,0-6,2.7-6,6.1c0,1.6,0.5,3.1,1.4,4.4c-0.6-0.4-1.2-0.8-1.7-1.3l-0.1-0.1
									c-4.4-4.3-11.4-4.3-15.8,0l-0.1,0.1c-1.8,1.8-4.1,2.7-6.5,2.8c-3.1-0.1-5.7-2.7-5.7-5.9c0-2.5,2-4.5,4.5-4.5
									c1.9,0,3.4,1.6,3.4,3.5c0,1.4-1.2,2.6-2.6,2.6c-1.1,0-1.9-0.9-1.9-1.9c0-0.8,0.6-1.4,1.4-1.4c0.5,0,1,0.4,1,1
									c0,0.4,0.3,0.8,0.8,0.8c0.4,0,0.8-0.3,0.8-0.8c0-1.4-1.1-2.5-2.5-2.5c-1.6,0-2.9,1.3-2.9,2.9c0,1.9,1.6,3.5,3.4,3.5
									c2.3,0,4.1-1.9,4.1-4.2c0-2.8-2.2-5-4.9-5c-3.3,0-6,2.7-6,6.1c0,1.5,0.5,2.9,1.2,4.1c-0.4-0.3-0.9-0.6-1.3-1l-0.2-0.1
									c-4.4-4.3-11.4-4.3-15.8,0l-0.2,0.1c-1.8,1.8-4.2,2.7-6.6,2.8c-3.2,0-5.8-2.6-5.8-5.9c0-2.5,2-4.5,4.5-4.5
									c1.9,0,3.4,1.6,3.4,3.5c0,1.4-1.2,2.6-2.6,2.6c-1.1,0-1.9-0.9-1.9-1.9c0-0.8,0.6-1.4,1.4-1.4c0.5,0,1,0.4,1,1
									c0,0.4,0.3,0.8,0.8,0.8s0.8-0.3,0.8-0.8c0-1.4-1.1-2.5-2.5-2.5c-1.6,0-2.9,1.3-2.9,2.9c0,1.9,1.6,3.5,3.4,3.5
									c2.3,0,4.1-1.9,4.1-4.2c0-2.8-2.2-5-4.9-5c-3.3,0-6,2.7-6,6.1c0,1.4,0.4,2.7,1.1,3.8c-0.3-0.2-0.6-0.5-0.9-0.8l-0.2-0.1
									c-4.4-4.3-11.4-4.3-15.8,0l-0.2,0.1c-1.9,1.8-4.3,2.8-6.7,2.8c0,0,0,0,0,0c-3.2,0-5.8-2.6-5.8-5.9c0-2.5,2-4.5,4.5-4.5
									c1.9,0,3.4,1.6,3.4,3.5c0,1.4-1.2,2.6-2.6,2.6c-1.1,0-1.9-0.9-1.9-1.9c0-0.8,0.6-1.4,1.4-1.4c0.5,0,1,0.4,1,1
									c0,0.4,0.3,0.8,0.8,0.8c0.4,0,0.8-0.3,0.8-0.8c0-1.4-1.1-2.5-2.5-2.5C59.3,23,58,24.3,58,26c0,1.9,1.6,3.5,3.4,3.5
									c2.3,0,4.1-1.9,4.1-4.2c0-2.8-2.2-5-4.9-5c-3.3,0-6,2.7-6,6.1c0,1.3,0.3,2.5,0.9,3.5c-0.2-0.1-0.3-0.3-0.5-0.4l-0.1-0.1
									C52.7,27.2,49.9,26,47,26c-0.4,0-0.8,0.3-0.8,0.8c0,0.4,0.3,0.8,0.8,0.8c2.6,0,5,1,6.9,2.8l0.2,0.1c4.4,4.3,11.4,4.3,15.8,0
									l0.1-0.1c3.8-3.7,9.9-3.7,13.7,0l0.1,0.1c2.2,2.2,5,3.2,7.9,3.2s5.7-1.1,7.9-3.2l0.2-0.1c3.8-3.7,9.9-3.7,13.7,0l0.2,0.1
									c2.3,2.3,5.3,3.3,8.3,3.2c0,0,0.1,0,0.1,0c0,0,0,0,0.1,0c2.7-0.1,5.3-1.2,7.4-3.2l0.1-0.1c3.8-3.7,9.9-3.7,13.7,0l0.1,0.1
									c2.3,2.3,5.4,3.3,8.4,3.2c0.1,0,0.1,0,0.2,0c0,0,0.1,0,0.1,0c2.6-0.2,5.1-1.2,7.1-3.2l0.1-0.1c1.7-1.7,4-2.7,6.4-2.8
									c0.1,0,0.2,0.1,0.3,0.1c2.6,0,5,1,6.9,2.8l0.2,0.1c4.4,4.3,11.4,4.3,15.8,0l0.1-0.1c3.8-3.7,9.9-3.7,13.7,0l0.1,0.1
									c2.2,2.2,5,3.2,7.9,3.2c2.8,0,5.7-1.1,7.9-3.2l0.2-0.1c3.8-3.7,9.9-3.7,13.7,0l0.2,0.1c2.3,2.3,5.3,3.3,8.3,3.2
									c0,0,0.1,0,0.1,0c0,0,0,0,0.1,0c2.7-0.1,5.3-1.2,7.4-3.2l0.1-0.1c3.8-3.7,9.9-3.7,13.7,0l0.1,0.1c2.3,2.3,5.4,3.3,8.4,3.2
									c0.1,0,0.1,0,0.2,0c0,0,0.1,0,0.1,0c2.6-0.2,5.1-1.2,7.1-3.2l0.1-0.1c1.8-1.8,4.3-2.8,6.9-2.8c0.4,0,0.8-0.3,0.8-0.8
									C285.8,26.3,285.4,26,285,26z"/>
								<path class="st2" d="M269.7,39.2c-3,0-5.8,1.1-7.9,3.2l-0.2,0.1c-1.8,1.7-4.1,2.7-6.4,2.8c-3.1-0.1-5.6-2.7-5.6-5.9
									c0-2.5,2-4.5,4.5-4.5c1.9,0,3.4,1.6,3.4,3.5c0,1.4-1.2,2.6-2.6,2.6c-1.1,0-1.9-0.9-1.9-1.9c0-0.8,0.6-1.4,1.4-1.4
									c0.5,0,1,0.4,1,1c0,0.4,0.3,0.8,0.8,0.8c0.4,0,0.8-0.3,0.8-0.8c0-1.4-1.1-2.5-2.5-2.5c-1.6,0-2.9,1.3-2.9,2.9
									c0,1.9,1.6,3.5,3.4,3.5c2.3,0,4.1-1.9,4.1-4.2c0-2.8-2.2-5-4.9-5c-3.3,0-6,2.7-6,6.1c0,1.6,0.5,3.1,1.4,4.4
									c-0.6-0.4-1.2-0.8-1.7-1.3l-0.2-0.1c-4.4-4.3-11.4-4.3-15.8,0l-0.2,0.1c-1.8,1.8-4.1,2.7-6.5,2.8c-3.1-0.1-5.7-2.7-5.7-5.9
									c0-2.5,2-4.5,4.5-4.5c1.9,0,3.4,1.6,3.4,3.5c0,1.4-1.2,2.6-2.6,2.6c-1.1,0-1.9-0.9-1.9-1.9c0-0.8,0.6-1.4,1.4-1.4
									c0.5,0,1,0.4,1,1c0,0.4,0.3,0.8,0.8,0.8s0.8-0.3,0.8-0.8c0-1.4-1.1-2.5-2.5-2.5c-1.6,0-2.9,1.3-2.9,2.9
									c0,1.9,1.6,3.5,3.4,3.5c2.3,0,4.1-1.9,4.1-4.2c0-2.8-2.2-5-4.9-5c-3.3,0-6,2.7-6,6.1c0,1.5,0.5,2.9,1.2,4.1
									c-0.4-0.3-0.9-0.6-1.3-1l-0.2-0.1c-4.4-4.3-11.4-4.3-15.8,0l-0.1,0.1c-1.8,1.8-4.2,2.7-6.6,2.8c-3.2,0-5.8-2.6-5.8-5.9
									c0-2.5,2-4.5,4.5-4.5c1.9,0,3.4,1.6,3.4,3.5c0,1.4-1.2,2.6-2.6,2.6c-1.1,0-1.9-0.9-1.9-1.9c0-0.8,0.6-1.4,1.4-1.4
									c0.5,0,1,0.4,1,1c0,0.4,0.3,0.8,0.8,0.8c0.4,0,0.8-0.3,0.8-0.8c0-1.4-1.1-2.5-2.5-2.5c-1.6,0-2.9,1.3-2.9,2.9
									c0,1.9,1.6,3.5,3.4,3.5c2.3,0,4.1-1.9,4.1-4.2c0-2.8-2.2-5-4.9-5c-3.3,0-6,2.7-6,6.1c0,1.4,0.4,2.7,1.1,3.8
									c-0.3-0.2-0.6-0.5-0.9-0.8l-0.2-0.1c-4.4-4.3-11.4-4.3-15.8,0l-0.1,0.1c-1.9,1.8-4.3,2.8-6.7,2.8c0,0,0,0,0,0
									c-3.2,0-5.8-2.6-5.8-5.9c0-2.5,2-4.5,4.5-4.5c1.9,0,3.4,1.6,3.4,3.5c0,1.4-1.2,2.6-2.6,2.6c-1.1,0-1.9-0.9-1.9-1.9
									c0-0.8,0.6-1.4,1.4-1.4c0.5,0,1,0.4,1,1c0,0.4,0.3,0.8,0.8,0.8c0.4,0,0.8-0.3,0.8-0.8c0-1.4-1.1-2.5-2.5-2.5
									c-1.6,0-2.9,1.3-2.9,2.9c0,1.9,1.6,3.5,3.4,3.5c2.3,0,4.1-1.9,4.1-4.2c0-2.8-2.2-5-4.9-5c-3.3,0-6,2.7-6,6.1
									c0,1.3,0.3,2.5,0.9,3.5c-0.2-0.1-0.3-0.3-0.5-0.4l-0.2-0.1c-2-1.9-4.6-3.1-7.4-3.2c-0.1-0.1-0.2-0.1-0.3-0.1
									c-3,0-5.8,1.1-7.9,3.2l-0.2,0.1c-1.8,1.7-4.1,2.7-6.4,2.8c-3.1-0.1-5.6-2.7-5.6-5.9c0-2.5,2-4.5,4.5-4.5
									c1.9,0,3.4,1.6,3.4,3.5c0,1.4-1.2,2.6-2.6,2.6c-1.1,0-1.9-0.9-1.9-1.9c0-0.8,0.6-1.4,1.4-1.4c0.5,0,1,0.4,1,1
									c0,0.4,0.3,0.8,0.8,0.8c0.4,0,0.8-0.3,0.8-0.8c0-1.4-1.1-2.5-2.5-2.5c-1.6,0-2.9,1.3-2.9,2.9c0,1.9,1.6,3.5,3.4,3.5
									c2.3,0,4.1-1.9,4.1-4.2c0-2.8-2.2-5-4.9-5c-3.3,0-6,2.7-6,6.1c0,1.6,0.5,3.1,1.4,4.4c-0.6-0.4-1.2-0.8-1.7-1.3l-0.2-0.1
									c-4.4-4.3-11.4-4.3-15.8,0l-0.2,0.1c-1.8,1.8-4.1,2.7-6.5,2.8c-3.1-0.1-5.7-2.7-5.7-5.9c0-2.5,2-4.5,4.5-4.5
									c1.9,0,3.4,1.6,3.4,3.5c0,1.4-1.2,2.6-2.6,2.6c-1.1,0-1.9-0.9-1.9-1.9c0-0.8,0.6-1.4,1.4-1.4c0.5,0,1,0.4,1,1
									c0,0.4,0.3,0.8,0.8,0.8c0.4,0,0.8-0.3,0.8-0.8c0-1.4-1.1-2.5-2.5-2.5c-1.6,0-2.9,1.3-2.9,2.9c0,1.9,1.6,3.5,3.4,3.5
									c2.3,0,4.1-1.9,4.1-4.2c0-2.8-2.2-5-4.9-5c-3.3,0-6,2.7-6,6.1c0,1.5,0.5,2.9,1.2,4.1c-0.4-0.3-0.9-0.6-1.3-1L99,42.5
									c-4.4-4.3-11.4-4.3-15.8,0l-0.1,0.1c-1.8,1.8-4.2,2.7-6.6,2.8c-3.2,0-5.8-2.6-5.8-5.9c0-2.5,2-4.5,4.5-4.5
									c1.9,0,3.4,1.6,3.4,3.5c0,1.4-1.2,2.6-2.6,2.6c-1.1,0-1.9-0.9-1.9-1.9c0-0.8,0.6-1.4,1.4-1.4c0.5,0,1,0.4,1,1
									c0,0.4,0.3,0.8,0.8,0.8s0.8-0.3,0.8-0.8c0-1.4-1.1-2.5-2.5-2.5c-1.6,0-2.9,1.3-2.9,2.9c0,1.9,1.6,3.5,3.4,3.5
									c2.3,0,4.1-1.9,4.1-4.2c0-2.8-2.2-5-4.9-5c-3.3,0-6,2.7-6,6.1c0,1.4,0.4,2.7,1.1,3.8c-0.3-0.2-0.6-0.5-0.9-0.8l-0.2-0.1
									c-4.4-4.3-11.4-4.3-15.8,0l-0.1,0.1c-1.9,1.8-4.3,2.8-6.7,2.8c0,0,0,0,0,0c-3.2,0-5.8-2.6-5.8-5.9c0-2.5,2-4.5,4.5-4.5
									c1.9,0,3.4,1.6,3.4,3.5c0,1.4-1.2,2.6-2.6,2.6c-1.1,0-1.9-0.9-1.9-1.9c0-0.8,0.6-1.4,1.4-1.4c0.5,0,1,0.4,1,1
									c0,0.4,0.3,0.8,0.8,0.8s0.8-0.3,0.8-0.8c0-1.4-1.1-2.5-2.5-2.5c-1.6,0-2.9,1.3-2.9,2.9c0,1.9,1.6,3.5,3.4,3.5
									c2.3,0,4.1-1.9,4.1-4.2c0-2.8-2.2-5-4.9-5c-3.3,0-6,2.7-6,6.1c0,1.3,0.3,2.5,0.9,3.5c-0.2-0.1-0.3-0.3-0.5-0.4l-0.2-0.1
									c-2-2.3-4.8-3.4-7.8-3.4c-0.4,0-0.8,0.3-0.8,0.8c0,0.4,0.3,0.8,0.8,0.8c2.6,0,5,1,6.9,2.8l0.2,0.1c4.4,4.3,11.4,4.3,15.8,0
									l0.2-0.1c3.8-3.7,9.9-3.7,13.7,0l0.1,0.1c2.3,2.2,5.2,3.3,8.2,3.2l0,0l0,0c2.7-0.1,5.5-1.1,7.6-3.2l0.2-0.1
									c3.8-3.7,9.9-3.7,13.7,0l0.1,0.1c2.3,2.3,5.3,3.3,8.3,3.2c0,0,0.1,0,0.1,0c0,0,0,0,0.1,0c2.7-0.1,5.3-1.2,7.4-3.2l0.2-0.1
									c3.8-3.7,9.9-3.7,13.7,0l0.2,0.1c2.2,2.2,5,3.2,7.9,3.2c0.2,0,0.3,0,0.5,0c0.1,0,0.1,0,0.2,0c0,0,0.1,0,0.1,0
									c2.6-0.2,5.1-1.2,7.1-3.2l0.2-0.1c1.7-1.7,4-2.7,6.4-2.8c0.1,0,0.2,0.1,0.3,0.1c2.6,0,5,1,6.9,2.8l0.2,0.1
									c4.4,4.3,11.4,4.3,15.8,0l0.2-0.1c3.8-3.7,9.9-3.7,13.7,0l0.1,0.1c2.3,2.2,5.2,3.3,8.2,3.2l0,0l0,0c2.7-0.1,5.5-1.1,7.6-3.2
									l0.2-0.1c3.8-3.7,9.9-3.7,13.7,0l0.1,0.1c2.3,2.3,5.3,3.3,8.3,3.2c0,0,0.1,0,0.1,0c0,0,0,0,0.1,0c2.7-0.1,5.3-1.2,7.4-3.2
									l0.2-0.1c3.8-3.7,9.9-3.7,13.7,0l0.2,0.1c2.2,2.2,5,3.2,7.9,3.2c0.2,0,0.3,0,0.5,0c0.1,0,0.1,0,0.2,0c0,0,0.1,0,0.1,0
									c2.6-0.2,5.1-1.2,7.1-3.2l0.2-0.1c1.8-1.8,4.3-2.8,6.8-2.8c0.4,0,0.8-0.3,0.8-0.8C270.5,39.5,270.1,39.2,269.7,39.2z"/>
							</g>
						</g>
					</g>
				</g>
			</g>
		</g>
	</g>
</g>
</svg>
