<?xml version="1.0" encoding="UTF-8"?>
<svg width="22px" height="23px" viewBox="0 0 22 23" version="1.1" xmlns="http://www.w3.org/2000/svg" xmlns:xlink="http://www.w3.org/1999/xlink">
    <!-- Generator: sketchtool 51.2 (57519) - http://www.bohemiancoding.com/sketch -->
    <title>07FC8C59-E6A1-4292-A4A8-02144AA0DFAB-909-0000781A2376C77C</title>
    <desc>Created with sketchtool.</desc>
    <defs></defs>
    <g id="Homepage-CHECK" stroke="none" stroke-width="1" fill="none" fill-rule="evenodd">
        <g id="Style-elements" transform="translate(-76.000000, -1333.000000)" fill="#212B35" fill-rule="nonzero">
            <g id="Group" transform="translate(42.000000, 884.000000)">
                <g id="product/card_details" transform="translate(0.000000, 249.000000)">
                    <g id="Group" transform="translate(1.000000, 198.000000)">
                        <g id="icon/camping" transform="translate(32.000000, 0.000000)">
                            <g id="Group" transform="translate(1.000000, 1.000000)">
                                <path d="M9.44448,6.79392 L7.2192,10.56 L13.89984,10.56 L11.67456,6.79392 L14.2656,2.40864 C14.53536,1.95168 14.38464,1.3632 13.92768,1.09344 C13.47072,0.82368 12.8832,0.9744 12.61248,1.43136 L10.56,4.90656 L8.50656,1.43136 C8.2368,0.97536 7.64736,0.82272 7.19136,1.09344 C6.73536,1.3632 6.58368,1.95168 6.85344,2.40864 L9.44448,6.79392 Z" id="Shape"></path>
                                <path d="M20.98656,22.55136 L15.03456,12.48 L6.08544,12.48 L0.13344,22.55136 C-0.04224,22.848 -0.04512,23.21568 0.12576,23.5152 C0.2976,23.81568 0.61536,24 0.96,24 L6.72,24 L10.56,17.28 L14.4,24 L20.16,24 C20.50464,24 20.8224,23.81568 20.99424,23.51616 C21.16416,23.21664 21.16128,22.848 20.98656,22.55136 Z" id="Shape"></path>
                            </g>
                        </g>
                    </g>
                </g>
            </g>
        </g>
    </g>
</svg>