<?xml version="1.0" encoding="UTF-8"?>
<svg width="24px" height="18px" viewBox="0 0 24 18" version="1.1" xmlns="http://www.w3.org/2000/svg" xmlns:xlink="http://www.w3.org/1999/xlink">
    <!-- Generator: sketchtool 51.2 (57519) - http://www.bohemiancoding.com/sketch -->
    <title>FDB03135-E227-4125-815B-6224FDFBEC35-909-0000781A2377268F</title>
    <desc>Created with sketchtool.</desc>
    <defs></defs>
    <g id="Homepage-CHECK" stroke="none" stroke-width="1" fill="none" fill-rule="evenodd">
        <g id="Style-elements" transform="translate(-43.000000, -1337.000000)" fill="#212B35" fill-rule="nonzero">
            <g id="Group" transform="translate(42.000000, 884.000000)">
                <g id="product/card_details" transform="translate(0.000000, 249.000000)">
                    <g id="Group" transform="translate(1.000000, 198.000000)">
                        <g id="icon/bus">
                            <path d="M21,6 L3,6 C1.346,6 0,7.346 0,9 L0,20 C0,20.552 0.448,21 1,21 L2.051,21 C2.296,22.692 3.742,24 5.5,24 C7.258,24 8.704,22.692 8.949,21 L15.05,21 C15.295,22.692 16.741,24 18.499,24 C20.257,24 21.703,22.692 21.948,21 L23,21 C23.552,21 24,20.552 24,20 L24,9 C24,7.346 22.654,6 21,6 Z M22,9 L22,13 L18,13 L18,8 L21,8 C21.551,8 22,8.449 22,9 Z M3,8 L16,8 L16,13 L2,13 L2,9 C2,8.449 2.449,8 3,8 Z M5.5,22 C4.673,22 4,21.327 4,20.5 C4,19.673 4.673,19 5.5,19 C6.327,19 7,19.673 7,20.5 C7,21.327 6.327,22 5.5,22 Z M18.5,22 C17.673,22 17,21.327 17,20.5 C17,19.673 17.673,19 18.5,19 C19.327,19 20,19.673 20,20.5 C20,21.327 19.327,22 18.5,22 Z" id="Shape"></path>
                        </g>
                    </g>
                </g>
            </g>
        </g>
    </g>
</svg>