<?xml version="1.0" encoding="utf-8"?>
<!-- Generator: Adobe Illustrator 21.0.0, SVG Export Plug-In . SVG Version: 6.00 Build 0)  -->
<svg version="1.1" id="Layer_1" xmlns="http://www.w3.org/2000/svg" xmlns:xlink="http://www.w3.org/1999/xlink" x="0px" y="0px"
	 viewBox="0 0 74.9 61.1" style="enable-background:new 0 0 74.9 61.1;" xml:space="preserve">
<style type="text/css">
	.st0{fill:#232B34;}
	.st1{fill:none;}
	.st2{fill:#FFFFFF;}
</style>
<title>FDB03135-E227-4125-815B-6224FDFBEC35-909-0000781A2377268F</title>
<desc>Created with sketchtool.</desc>
<g>
	<path class="st0" d="M68.8,19.6c0-3.5-1.5-6.2-4.5-8c-1.4-0.9-3-1.2-4.7-1.2c-3.4,0-6.9,0-10.3,0c-0.5,0-0.8-0.2-0.7-0.7
		c0-0.5,0-1,0-1.5c-0.1-3.7-2.9-6.6-6.6-6.7c-1.5,0-3.1-0.1-4.6-0.1c-1.5,0-3.1,0-4.6,0.1c-3.7,0.1-6.5,2.9-6.6,6.7c0,0.5,0,1,0,1.5
		c0,0.6-0.2,0.7-0.7,0.7c-3.4,0-6.9,0-10.3,0c-1.7,0-3.2,0.3-4.7,1.2c-3,1.8-4.5,4.6-4.5,8c0,7.6,0,15.3,0,22.9c0,1.9,0,3.8,0,5.7
		c0,4.7,3.2,8.4,7.8,9.1c0.1,0,0.3,0,0.4,0c0.5,0,0.7,0.2,0.7,0.7c0,1,0.6,1.5,1.6,1.5c1.9,0,3.7,0,5.6,0c1.1,0,1.7-0.5,1.7-1.7
		c0-0.7,0.4-0.6,0.9-0.6c4.2,0,8.4,0,12.6,0c4.2,0,8.4,0,12.6,0c0.4,0,0.8-0.1,0.9,0.6c0,1.1,0.6,1.6,1.7,1.7c1.9,0,3.7,0,5.6,0
		c1,0,1.6-0.6,1.6-1.5c0-0.6,0.2-0.8,0.7-0.7c0.1,0,0.3,0,0.4,0c4.7-0.8,7.8-4.4,7.8-9.1c0-1.9,0-3.8,0-5.7
		C68.8,34.9,68.9,27.3,68.8,19.6z M44.7,10.3H29.5V7.7c0-1.3,1.1-2.4,2.4-2.4h10.4c1.3,0,2.4,1.1,2.4,2.4V10.3z"/>
</g>
<g>
	<path class="st1" d="M-38.4,28.4c-1.2,0-2.2,1-2.3,2.2c0,1.2,1,2.3,2.2,2.3c1.2,0,2.2-1,2.2-2.2C-36.1,29.4-37.2,28.4-38.4,28.4z"
		/>
	<path class="st2" d="M57.1,20.8c-0.3-0.3-0.4-0.7-0.4-1.1c0-3.1,0-6.2,0-9.3h-2.2c0,3.2,0,6.4,0,9.6c0,0.3-0.2,0.6-0.3,0.8
		c-1.1,1.5-2.2,3-3.3,4.5C50.3,26,50,26.8,50,27.7c0,2.9,0,5.9,0,8.8c0,1.2,0.6,1.8,1.7,1.8c2.5,0,5.1,0,7.6,0
		c1.2,0,1.8-0.5,1.8-1.8c0-3,0-6.1,0-9.1c0-0.7-0.3-1.4-0.7-1.9C59.4,23.9,58.2,22.4,57.1,20.8z M55.6,29.3c-1.2,0-2.3-1-2.2-2.3
		c0-1.2,1-2.2,2.3-2.2c1.2,0,2.2,1,2.2,2.2C57.8,28.3,56.8,29.3,55.6,29.3z"/>
</g>
</svg>
