<svg id="Capa_1" data-name="Capa 1" xmlns="http://www.w3.org/2000/svg" viewBox="0 0 314.56 437.55"><defs><style>.cls-1{fill:#232b34;}</style></defs><title>Activity</title><path class="cls-1" d="M326.46,173.14V147.32a7.43,7.43,0,0,0-14.85,0v19.61a27.19,27.19,0,0,0-3.17-.19H269.5s-52.27-43.33-72-50.28c-26.78-9.44-55.91,6.87-64.26,34L83.93,309.64,27.21,395a28.56,28.56,0,1,0,47.59,31.6l58.93-88.73a28.65,28.65,0,0,0,3.43-7.14l11.29-35.46,16.93,31L182,421.82A28.56,28.56,0,1,0,238.27,412L220.85,311.87a28.37,28.37,0,0,0-3.08-8.8L201.13,272.6a51.3,51.3,0,0,0,6.13-13.06l16.89-54.87,19.87,14a28.56,28.56,0,0,0,16.44,5.2h48a29.22,29.22,0,0,0,3.17-.18V419.22a7.43,7.43,0,0,0,14.85,0V217.46a28.55,28.55,0,0,0,0-44.31Zm0,0" transform="translate(-22.44 -7.94)"/><path class="cls-1" d="M286.49,63.06A55.12,55.12,0,1,1,231.37,7.94a55.12,55.12,0,0,1,55.12,55.12Zm0,0" transform="translate(-22.44 -7.94)"/><path class="cls-1" d="M61.14,255.37a28.53,28.53,0,0,0,35.66-19l29.4-96.31A28.56,28.56,0,0,0,71.56,123.4l-29.4,96.31a28.56,28.56,0,0,0,19,35.66Zm0,0" transform="translate(-22.44 -7.94)"/></svg>