<svg id="Layer_1" data-name="Layer 1" xmlns="http://www.w3.org/2000/svg" viewBox="0 0 52.81 52.82"><defs><style>.cls-1{fill:#fdd045;}.cls-2{fill:#e5a44c;}</style></defs><title>5</title><path class="cls-1" d="M8.66,35c4.09,2,5.82-1,7.58-4.37C18.68,26,23,23,26.55,19.29,30.26,15.35,34.14,11.55,38,7.78c4.11-4,9.92-4.41,13.42-1.1,3.91,3.7,3.67,9-.81,13.61-6.36,6.49-12.82,12.87-19.28,19.26a11.18,11.18,0,0,1-3.14,2.33c-3.84,1.72-6.36,4-4.86,8.7A3.16,3.16,0,0,1,22,54.45c-1.65.88-2.85-.32-3.75-1.46-2.26-2.86-4.68-3.68-7.85-1.36a2.82,2.82,0,0,1-3.67.14c-1.27-1.21-.8-2.88.12-4,2.37-2.95,1.68-5.15-1.11-7.3-1.22-.94-2.77-2.14-1.84-4S6.57,34.95,8.66,35Z" transform="translate(-3.55 -1.95)"/><path class="cls-2" d="M56.36,43.32c0,3.61-5.4,10.68-7.93,11.35-1.6.42-2.44-.52-3.21-1.66-2.38-3.5-4.78-7-7.14-10.49a4.39,4.39,0,0,1-.75-1.57C37,39.4,45.9,30.1,47.51,30.22a1.2,1.2,0,0,1,.79.28C51.61,34.72,55,38.92,56.36,43.32Z" transform="translate(-3.55 -1.95)"/><path class="cls-2" d="M28.23,11.1A23.35,23.35,0,0,1,26.89,13C19,22.44,19,22.44,9,15.68,1.91,10.94,1.91,10.92,8,5.09,12.07,1.23,14.47,1,19.25,4c2.34,1.49,4.67,3,7,4.55A3.71,3.71,0,0,1,28.23,11.1Z" transform="translate(-3.55 -1.95)"/></svg>