<?xml version="1.0" encoding="UTF-8"?>
<svg width="38px" height="28px" viewBox="0 0 38 28" version="1.1" xmlns="http://www.w3.org/2000/svg" xmlns:xlink="http://www.w3.org/1999/xlink">
    <!-- Generator: sketchtool 51.2 (57519) - http://www.bohemiancoding.com/sketch -->
    <title>8A30B3BC-7F19-48AB-952B-33B7061DFC41-909-0000FF7CFFE8E052</title>
    <desc>Created with sketchtool.</desc>
    <defs></defs>
    <g id="Homepage-CHECK" stroke="none" stroke-width="1" fill="none" fill-rule="evenodd">
        <g id="D_homepage_XL" transform="translate(-1355.000000, -5621.000000)" fill="#212B35" fill-rule="nonzero">
            <g id="footer-versie-2" transform="translate(-1.000000, 5551.000000)">
                <g id="Group-4" transform="translate(1.000000, 32.000000)">
                    <g id="Group" transform="translate(1226.000000, 0.000000)">
                        <g id="Group-70" transform="translate(0.000000, 33.312500)">
                            <path d="M166.683333,10.8606151 C166.683333,10.8606151 166.366667,8.10949901 165.1,6.97668651 C163.675,5.35838294 162.091667,5.35838294 161.3,5.35838294 C155.916667,5.03472222 148,5.03472222 148,5.03472222 C148,5.03472222 140.083333,5.03472222 134.7,5.35838294 C133.908333,5.52021329 132.325,5.52021329 130.9,6.97668651 C129.791667,8.10949901 129.316667,10.8606151 129.316667,10.8606151 C129.316667,10.8606151 129,13.9353919 129,17.171999 L129,20.0849454 C129,23.1597222 129.316667,26.3963294 129.316667,26.3963294 C129.316667,26.3963294 129.633333,29.1474454 130.9,30.2802579 C132.325,31.8985615 134.225,31.7367312 135.016667,31.8985615 C138.025,32.2222222 148,32.2222222 148,32.2222222 C148,32.2222222 155.916667,32.2222222 161.3,31.7367312 C162.091667,31.5749008 163.675,31.5749008 165.1,30.1184276 C166.208333,28.9856151 166.683333,26.234499 166.683333,26.234499 C166.683333,26.234499 167,23.1597222 167,19.9231151 L167,17.0101687 C167,13.9353919 166.683333,10.8606151 166.683333,10.8606151 Z M144.041667,23.6452133 L144.041667,12.8025794 L154.333333,18.3048115 L144.041667,23.6452133 Z" id="youtube"></path>
                        </g>
                    </g>
                </g>
            </g>
        </g>
    </g>
</svg>