<?xml version="1.0" encoding="UTF-8"?>
<svg width="24px" height="20px" viewBox="0 0 24 20" version="1.1" xmlns="http://www.w3.org/2000/svg" xmlns:xlink="http://www.w3.org/1999/xlink">
    <!-- Generator: sketchtool 51.2 (57519) - http://www.bohemiancoding.com/sketch -->
    <title>7A067482-88C9-432D-9C0E-BC8862D8FD08-909-0000781A23768918</title>
    <desc>Created with sketchtool.</desc>
    <defs></defs>
    <g id="Homepage-CHECK" stroke="none" stroke-width="1" fill="none" fill-rule="evenodd">
        <g id="Style-elements" transform="translate(-108.000000, -1336.000000)" fill="#212B35" fill-rule="nonzero">
            <g id="Group" transform="translate(42.000000, 884.000000)">
                <g id="product/card_details" transform="translate(0.000000, 249.000000)">
                    <g id="Group" transform="translate(1.000000, 198.000000)">
                        <g id="icon/activity" transform="translate(65.000000, 0.000000)">
                            <path d="M21.6,14.6 C21.6,13.28 22.68,12.2 24,12.2 L24,7.4 C24,6.08 22.92,5 21.6,5 L2.4,5 C1.08,5 0.012,6.08 0.012,7.4 L0.012,12.2 C1.332,12.2 2.4,13.28 2.4,14.6 C2.4,15.92 1.332,17 0,17 L0,21.8 C0,23.12 1.08,24.2 2.4,24.2 L21.6,24.2 C22.92,24.2 24,23.12 24,21.8 L24,17 C22.68,17 21.6,15.92 21.6,14.6 Z M16.296,20.36 L12,17.6 L7.704,20.36 L9,15.416 L5.052,12.188 L10.14,11.888 L12,7.16 L13.848,11.9 L18.936,12.2 L14.988,15.428 L16.296,20.36 Z" id="Shape"></path>
                        </g>
                    </g>
                </g>
            </g>
        </g>
    </g>
</svg>