<?xml version="1.0" encoding="utf-8"?>
<!-- Generator: Adobe Illustrator 23.0.5, SVG Export Plug-In . SVG Version: 6.00 Build 0)  -->
<svg version="1.1" id="Layer_1" xmlns="http://www.w3.org/2000/svg" xmlns:xlink="http://www.w3.org/1999/xlink" x="0px" y="0px"
	 viewBox="0 0 59.3 59.3" style="enable-background:new 0 0 59.3 59.3;" xml:space="preserve">
<style type="text/css">
	.st0{fill:#FFCF35;}
</style>
<title>appartment</title>
<path class="st0" d="M9,0h0.2l41.2,10.5c0.5,0.1,0.8,0.5,0.8,1v37.9H36.3V36.2c0-1.2-0.9-2.1-2.1-2.1H25c-1.2,0-2.1,0.9-2.1,2.1
	v13.2H8V1C8,0.5,8.5,0,9,0L9,0z M41.7,29h2.6c0.7,0,1.3-0.6,1.3-1.3v-2.5c0-0.7-0.6-1.3-1.3-1.3h-2.6c-0.7,0-1.3,0.6-1.3,1.3v2.5
	C40.5,28.4,41,29,41.7,29z M41.7,20h2.6c0.7,0,1.3-0.6,1.3-1.3v-2.5c0-0.7-0.6-1.3-1.3-1.3h-2.6c-0.7,0-1.3,0.6-1.3,1.3v2.5
	C40.5,19.4,41,20,41.7,20z M32.8,29h2.6c0.7,0,1.3-0.6,1.3-1.3v-2.5c0-0.7-0.6-1.3-1.3-1.3h-2.6c-0.7,0-1.3,0.6-1.3,1.3v2.5
	C31.5,28.4,32.1,29,32.8,29z M32.8,20h2.6c0.7,0,1.3-0.6,1.3-1.3v-2.5c0-0.7-0.6-1.3-1.3-1.3h-2.6c-0.7,0-1.3,0.6-1.3,1.3v2.5
	C31.5,19.4,32.1,20,32.8,20z M23.8,29h2.6c0.7,0,1.3-0.6,1.3-1.3v-2.5c0-0.7-0.6-1.3-1.3-1.3h-2.6c-0.7,0-1.3,0.6-1.3,1.2v2.5
	C22.5,28.4,23.1,29,23.8,29z M23.8,20h2.6c0.7,0,1.3-0.6,1.3-1.3v-2.5c0-0.7-0.6-1.3-1.3-1.3h-2.6c-0.7,0-1.3,0.6-1.3,1.2v2.5
	C22.5,19.4,23.1,20,23.8,20z M14.8,29h2.6c0.7,0,1.3-0.6,1.3-1.3v-2.5c0-0.7-0.6-1.3-1.3-1.3h-2.6c-0.7,0-1.3,0.6-1.3,1.2v2.5
	C13.6,28.4,14.1,29,14.8,29z M14.8,20h2.6c0.7,0,1.3-0.6,1.3-1.3v-2.5c0-0.7-0.6-1.3-1.3-1.3h-2.6c-0.7,0-1.3,0.6-1.3,1.2v2.5
	C13.6,19.4,14.1,20,14.8,20z"/>
<path class="st0" d="M52,51H7.3c-4,0-7.3,3.3-7.3,7.3c0,0.6,0.4,1,1,1h57.2c0.6,0,1-0.4,1-1C59.2,54.3,56,51,52,51z"/>
</svg>
