<?xml version="1.0" encoding="utf-8"?>
<!-- Generator: Adobe Illustrator 23.0.5, SVG Export Plug-In . SVG Version: 6.00 Build 0)  -->
<svg version="1.1" id="Layer_1" xmlns="http://www.w3.org/2000/svg" xmlns:xlink="http://www.w3.org/1999/xlink" x="0px" y="0px"
	 viewBox="0 0 59.3 42.9" style="enable-background:new 0 0 59.3 42.9;" xml:space="preserve">
<style type="text/css">
	.st0{fill:#FFCF35;}
	.st1{fill:#E5A03E;}
</style>
<title>appartment</title>
<g>
	<path class="st0" d="M58.1,26.4c-0.1,0-0.3,0-0.4,0c-10,0-19.9,0-29.9,0c-5.7,0-11.5,0-17.2,0c-1.4,0-2.1-0.7-2.1-2.1
		c0-1.2,0-2.4,0-3.5c0-1.3,0.7-2,2-2c3.6,0,7.2,0,10.9,0c0.1,0,0.3,0,0.5,0c0-0.2,0-0.3,0-0.5c0-1.9,0-3.8,0-5.6
		c0.1-1.5,0.6-2.8,1.6-3.8c1.1-1.1,2.5-1.5,4.1-1.5c4.4,0,8.8,0,13.3,0c2.5,0,4.9,0,7.4,0c1.8,0,3.6,0.4,5.2,1.3
		c2.8,1.5,4.2,3.8,4.5,6.9c0.2,2.1,0.1,4.2,0.1,6.3c0,1.4,0,2.8,0,4.2C58.2,26.2,58.1,26.3,58.1,26.4z"/>
	<path class="st0" d="M4.8,30.2c1.1,0,2.1,0,3.2,0c12,0,24.1,0,36.1,0c4,0,8,0,12,0c1.4,0,2.1,0.7,2.1,2.1c0,2.5,0,4.9,0,7.4
		c0,1.5-1.2,2.3-2.6,1.8c-0.8-0.3-1.2-0.9-1.2-1.8c0-1.8,0-3.5,0-5.3c0-0.1,0-0.3,0-0.4c-16.5,0-33,0-49.5,0c0,0.1,0,0.3,0,0.4
		c0,1.7,0,3.4,0,5.1c0,0.2,0,0.5-0.1,0.7c-0.2,0.9-1,1.4-2,1.4c-0.9,0-1.6-0.6-1.7-1.5c0-0.2,0-0.4,0-0.6c0-11.9,0-23.9,0-35.8
		c0-0.5,0.1-1,0.4-1.5c0.5-0.6,1.3-0.8,2.1-0.6c0.8,0.2,1.2,0.7,1.3,1.5c0.1,0.5,0,1.1,0,1.6c0,8.3,0,16.5,0,24.8
		C4.8,29.9,4.8,30,4.8,30.2z"/>
	<path class="st1" d="M8.6,9.3c0-3.1,2.7-5.7,5.7-5.7c3.1,0,5.7,2.7,5.7,5.7c0,3-2.7,5.7-5.7,5.7C11.3,15,8.6,12.3,8.6,9.3z"/>
</g>
</svg>
