<?xml version="1.0" encoding="utf-8"?>
<!-- Generator: Adobe Illustrator 23.0.5, SVG Export Plug-In . SVG Version: 6.00 Build 0)  -->
<svg version="1.1" id="Layer_1" xmlns="http://www.w3.org/2000/svg" xmlns:xlink="http://www.w3.org/1999/xlink" x="0px" y="0px"
	 viewBox="0 0 22 23" style="enable-background:new 0 0 22 23;" xml:space="preserve">
<style type="text/css">
	.st0{fill:#FFCF35;}
</style>
<title>07FC8C59-E6A1-4292-A4A8-02144AA0DFAB-909-0000781A2376C77C</title>
<desc>Created with sketchtool.</desc>
<g id="Homepage-CHECK">
	<g id="Style-elements" transform="translate(-76.000000, -1333.000000)">
		<g transform="translate(42.000000, 884.000000)">
			<g transform="translate(0.000000, 249.000000)">
				<g transform="translate(1.000000, 198.000000)">
					<g transform="translate(32.000000, 0.000000)">
						<g id="Group" transform="translate(1.000000, 1.000000)">
							<path id="Shape" class="st0" d="M9.4,6.8l-2.2,3.8h6.7l-2.2-3.8l2.6-4.4c0.3-0.5,0.1-1-0.3-1.3s-1-0.1-1.3,0.3l-2.1,3.5
								L8.5,1.4C8.2,1,7.6,0.8,7.2,1.1C6.7,1.4,6.6,2,6.9,2.4L9.4,6.8z"/>
							<path class="st0" d="M21,22.6l-6-10.1H6.1l-6,10.1c-0.2,0.3-0.2,0.7,0,1C0.3,23.8,0.6,24,1,24h5.8l3.8-6.7l3.8,6.7h5.8
								c0.3,0,0.7-0.2,0.8-0.5C21.2,23.2,21.2,22.8,21,22.6z"/>
						</g>
					</g>
				</g>
			</g>
		</g>
	</g>
</g>
</svg>
