<svg id="Layer_1" data-name="Layer 1" xmlns="http://www.w3.org/2000/svg" viewBox="0 0 52.51 50.29"><defs><style>.cls-1{fill:#fefefd;}.cls-2{fill:#fdd045;}.cls-3{fill:#e49f40;}</style></defs><title>3</title><path class="cls-1" d="M3.75,30.33c0,5.69.12,11.39,0,17.08-0.09,3.27.88,4.85,4.46,4.73,6-.2,12,0,18-0.08,1.51,0,3.63.42,3.66-2,0-2.55-2.14-2.32-3.87-2.34-4.38,0-8.77-.21-13.13,0-3.37.2-4.26-1.11-4.18-4.3q0.29-10.94,0-21.89c-0.08-3.08,1-4,4-4,9.63,0.16,19.27,0,28.9.09,3,0,6.68-1.23,8.91.66s0.52,5.52.87,8.36c0,0.14,0,.29,0,0.44,0.09,1.58.65,3.16,2.33,3.19,2,0,2.54-1.62,2.55-3.39q0-4.82,0-9.63c0-8.79,0-8.84-8.76-8.86-2.53,0-4.78.08-4.4-3.51A2.24,2.24,0,0,0,41.2,2.35a2.19,2.19,0,0,0-2.6,2.31c-0.05,3.87-2.46,3.95-5.3,3.81-2.48-.12-5-0.11-7.44,0s-4.31-.13-4.36-3.3c0-1.43-.74-3-2.64-2.85-1.58.16-2.11,1.52-2,2.94,0.29,3-1.45,3.36-3.79,3.2-1.31-.09-2.64.09-3.94,0-3.9-.36-5.63,1.17-5.46,5.26C3.92,19.23,3.75,24.78,3.75,30.33Z" transform="translate(-3.68 -2.3)"/><path class="cls-1" d="M41.06,52.6a3.74,3.74,0,0,0,1-.55C46,48.16,50,44.29,53.79,40.33c1.08-1.12.15-2.11-.66-3-1-1.14-2-.86-3,0.07-2,1.93-4,3.81-5.83,5.85s-3.68,4-6.25.82a1.82,1.82,0,0,0-2.71-.35,2.72,2.72,0,0,0-1.4,2.08C33.93,46.9,39.85,52.63,41.06,52.6Z" transform="translate(-3.68 -2.3)"/><path class="cls-2" d="M3.75,30.33c0-5.55.17-11.1-.06-16.64C3.52,9.6,5.25,8.07,9.15,8.43c1.3,0.12,2.63-.06,3.94,0,2.34,0.16,4.08-.21,3.79-3.2-0.14-1.42.39-2.78,2-2.94,1.9-.19,2.61,1.42,2.64,2.85,0.05,3.17,1.93,3.41,4.36,3.3s5-.12,7.44,0c2.84,0.14,5.25.05,5.3-3.81a2.19,2.19,0,0,1,2.6-2.31A2.24,2.24,0,0,1,43,5c-0.38,3.59,1.87,3.51,4.4,3.51,8.76,0,8.76.06,8.76,8.86q0,4.82,0,9.63c0,1.78-.59,3.42-2.55,3.39-1.68,0-2.24-1.61-2.33-3.19,0-.15,0-0.29,0-0.44-0.35-2.84,1.32-6.5-.87-8.36s-5.89-.63-8.91-0.66c-9.63-.09-19.27.07-28.9-0.09-3-.05-4.1.9-4,4q0.28,10.94,0,21.89c-0.09,3.19.81,4.49,4.18,4.3,4.36-.25,8.75-0.08,13.13,0,1.73,0,3.9-.21,3.87,2.34,0,2.39-2.15,2-3.66,2-6,.05-12-0.12-18,0.08-3.58.12-4.55-1.46-4.46-4.73C3.87,41.71,3.75,36,3.75,30.33Z" transform="translate(-3.68 -2.3)"/><path class="cls-3" d="M41.06,52.6c-1.21,0-7.13-5.7-7.12-6.81a2.72,2.72,0,0,1,1.4-2.08,1.82,1.82,0,0,1,2.71.35c2.57,3.14,4.34,1.28,6.25-.82s3.87-3.92,5.83-5.85c0.95-.93,2-1.21,3-0.07,0.81,0.89,1.74,1.88.66,3C50,44.29,46,48.16,42.1,52.05A3.74,3.74,0,0,1,41.06,52.6Z" transform="translate(-3.68 -2.3)"/></svg>