<svg id="Layer_1" data-name="Layer 1" xmlns="http://www.w3.org/2000/svg" viewBox="0 0 56.72 53.55"><defs><style>.cls-1{fill:#fdd045;}.cls-2{fill:#e49f40;}</style></defs><title>۱</title><path class="cls-1" d="M35,14.13c-0.08,3.2-.12,5.56-1.18,7.84-2.68,5.77-7.33,9.07-12.16,8.44S11.79,24.1,11.13,18.57c-0.69-5.77-.43-11.32,5.13-15A11.37,11.37,0,0,1,28.56,3C33.23,5.49,35.37,9.57,35,14.13Z" transform="translate(-1.11 -1.45)"/><path class="cls-1" d="M16.69,54.61c-4,0-8-.09-12,0-2.43.07-3.3-.82-3.46-3.32C0.56,40.61,2.83,37.89,13.64,36.14a58.35,58.35,0,0,1,14.82-.65c2.63,0.25,4.25,1.19,2.84,4.35a12.17,12.17,0,0,0,0,10.27c1.8,4,0,4.71-3.55,4.53S20.38,54.62,16.69,54.61Z" transform="translate(-1.11 -1.45)"/><path class="cls-2" d="M40.11,50.76a6.08,6.08,0,0,0-2.49-6.25c-2.26-1.83-1.9-3.36,1-3.62,3.4-.31,5.58-1.77,6.82-5,0.89-2.31,2.64-2,3.27,0,1.09,3.44,3.24,4.69,6.62,5,2.69,0.25,3.55,1.59,1,3.51s-3.68,4.27-2.39,7.48c0.34,0.84.65,2-.13,2.72-1.1,1-2.08-.08-3-0.56-2.17-1.14-4.2-2.19-6.65-.46C40.67,56,39.22,55,40.11,50.76Z" transform="translate(-1.11 -1.45)"/></svg>