<?xml version="1.0" encoding="utf-8"?>
<!-- Generator: Adobe Illustrator 23.0.5, SVG Export Plug-In . SVG Version: 6.00 Build 0)  -->
<svg version="1.1" id="Layer_1" xmlns="http://www.w3.org/2000/svg" xmlns:xlink="http://www.w3.org/1999/xlink" x="0px" y="0px"
	 viewBox="0 0 100 100" style="enable-background:new 0 0 100 100;" xml:space="preserve">
<style type="text/css">
	.st0{fill:#E5A03E;}
	.st1{fill:#FECE36;}
	.st2{fill:#FECF37;}
	.st3{fill:#FECF36;}
	.st4{fill:none;}
</style>
<g>
	<path class="st0" d="M63.97,56.29c-0.43-2.75-1.64-5.09-3.7-6.96c-2.74-2.49-5.97-3.53-9.64-3.11c-2.99,0.34-5.5,1.66-7.55,3.87
		c-0.03,0.03-0.09,0.09-0.16,0.17l1.92,1.67c2.67,1.19,6.43,3.72,8.94,8.98h9.92c0.02-0.03,0.04-0.08,0.05-0.14
		c0.21-0.92,0.35-1.85,0.31-2.79C64.09,57.42,64.06,56.85,63.97,56.29z"/>
</g>
<g>
	<path class="st1" d="M11.28,55.8c0.25,0.42,0.53,0.81,0.83,1.2c0.1,0.14,0.17,0.18,0.31,0.02c2.05-2.32,4.59-3.94,7.42-5.13
		c1.07-0.45,2.16-0.84,3.28-1.12c1.65-0.42,3.33-0.72,5.03-0.84c1.23-0.09,2.46-0.15,3.69-0.09c4.83,0.21,9.39,1.36,13.49,4.02
		c2.43,1.57,4.42,3.56,5.73,6.18c0.45,0.91,0.79,1.86,0.98,2.86c0.05,0.28,0.17,0.32,0.42,0.32c3.82-0.01,7.63,0,11.45,0
		c0.55,0,0.57,0.02,0.57,0.57c0.01,2.3-0.8,4.28-2.34,5.97c-0.07,0.08-0.19,0.14-0.21,0.26c0.08,0.06,0.16,0.03,0.24,0.03
		c5.83,0,11.66,0,17.49,0c1.98,0,3.59-1.27,4.01-3.15c0.06-0.28,0.09-0.56,0.09-0.85c0-13.37,0-26.73,0-40.1
		c0-0.27-0.06-0.35-0.34-0.35c-9.57,0.01-19.14,0.01-28.72,0c-0.3,0-0.36,0.09-0.36,0.37c0.01,5.55,0.01,11.09,0.01,16.64
		c0,0.48,0.07,0.43-0.44,0.43c-0.71,0-1.41-0.01-2.12,0.01c-0.28,0.01-0.37-0.06-0.37-0.36c0.01-3.61,0.01-7.21,0.01-10.82
		c0-2.26,0.03-4.51-0.01-6.77c-0.02-1.18,0.87-2.45,2.45-2.45c2.81,0,5.63,0,8.44,0c7.32,0,14.63,0,21.95,0
		c1.16,0,2.09,0.69,2.38,1.76c0.07,0.25,0.09,0.52,0.09,0.78c0,1.54,0,3.08,0,4.62c0,0.48,0,0.48,0.49,0.48
		c0.93,0,1.86-0.02,2.78,0.01c3.05,0.09,5.63,2.48,5.98,5.51c0.01,0.06,0.04,0.12,0.05,0.18c0,7.42,0,14.84,0,22.26
		c-0.06,0.06-0.05,0.14-0.05,0.21c-0.09,0.8-0.31,1.55-0.71,2.24c-1.26,2.18-3.16,3.25-5.66,3.29c-0.82,0.01-1.64,0-2.47,0
		c-0.47,0-0.41-0.05-0.41,0.43c0,0.5,0,0.99,0,1.49c-0.01,1.41-0.34,2.73-1.12,3.92c-0.04,0.07-0.12,0.12-0.08,0.24
		c0.11,0,0.23,0,0.34,0c2.7,0,5.4,0,8.09,0c0.98,0,1.74,0.77,1.76,1.74c0.01,0.6-0.02,1.2-0.14,1.79c-0.85,4.11-3.28,6.8-7.29,8.06
		c-0.65,0.21-1.34,0.26-2.01,0.38c-23.78,0-47.57,0-71.35,0c-0.17-0.12-0.38-0.08-0.57-0.11c-4.23-0.78-6.98-3.22-8.29-7.31
		c-0.2-0.63-0.26-1.29-0.37-1.94c0-0.4,0-0.8,0-1.2c0.02-0.03,0.05-0.07,0.06-0.1c0.31-0.88,0.9-1.3,1.83-1.3c0.84,0,1.69,0,2.53,0
		c0.13,0,0.26,0,0.4,0c-0.01-0.05-0.01-0.06-0.01-0.07c-0.06-0.07-0.12-0.14-0.19-0.21c-1.59-1.72-2.39-3.74-2.36-6.09
		c0.01-0.41,0.05-0.46,0.45-0.46c0.22,0,0.44-0.01,0.66,0c0.19,0.01,0.27-0.04,0.31-0.25c0.23-1.19,0.64-2.31,1.23-3.37
		c0.1-0.18,0.04-0.28-0.07-0.41c-0.53-0.6-1-1.25-1.42-1.93c-1.9-3.09-2.62-6.43-2.01-10.02c0.53-3.12,2-5.78,4.23-8
		c3.43-3.41,7.63-5.16,12.42-5.55c0.23-0.02,0.31-0.07,0.29-0.31c-0.04-0.5,0.03-0.99,0.16-1.47c0.75-2.77,2.32-5.07,4.3-7.08
		c1.98-2.01,4.47-3.16,7.19-3.81c0.6-0.14,1.21-0.24,1.82-0.36c0.06,0,0.13,0,0.19,0c-0.02,1.54-0.09,3.07-0.48,4.57
		c-0.07,0.29,0.13,0.18,0.23,0.15c0.87-0.22,1.75-0.36,2.64-0.44c1.27-0.11,2.54-0.08,3.81,0.12c0.03,0,0.06,0.01,0.09,0.02
		c0.24,0.03,0.58-0.03,0.67,0.15c0.08,0.16-0.1,0.45-0.17,0.68c-0.82,2.6-2.18,4.88-4.13,6.78c-1.31,1.28-2.89,2.14-4.53,2.91
		c-0.24,0.11-0.47,0.21-0.75,0.34c1.08,0.57,2.06,1.2,2.98,1.93c2.67,2.15,4.57,4.81,5.5,8.14c0.11,0.39,0.11,0.39-0.28,0.49
		c-0.62,0.15-1.25,0.29-1.87,0.46c-0.19,0.05-1.68,2.31-1.74,2.1C19.46,44.47,11.28,55.8,11.28,55.8z M19.91,54.71
		c-0.12,0.04-0.16,0.06-0.19,0.07c-1.87,0.9-3.56,2.04-5,3.55c-1.22,1.29-2.15,2.75-2.63,4.47c-0.11,0.4-0.11,0.4,0.3,0.4
		c12.24,0,24.48,0,36.71,0c0.38,0,0.37,0,0.27-0.38c-0.45-1.63-1.3-3.03-2.43-4.27c-2.04-2.23-4.59-3.67-7.4-4.7
		c-0.2-0.07-0.29,0.02-0.4,0.14c-1.08,1.15-1.92,2.45-2.52,3.91c-0.54,1.32-0.85,2.69-0.94,4.1c-0.03,0.42-0.03,0.42-0.44,0.4
		c-0.62-0.03-1.24-0.06-1.86-0.07c-0.22,0-0.31-0.05-0.3-0.31c0.11-1.99,0.57-3.89,1.4-5.7c0.51-1.12,1.15-2.16,1.91-3.12
		c0.07-0.08,0.23-0.19-0.04-0.24c-1.19-0.24-2.39-0.41-3.59-0.5c-0.12-0.01-0.21,0.01-0.31,0.1c-0.81,0.74-1.5,1.57-2.08,2.49
		c-1.19,1.9-1.83,3.96-1.96,6.2c-0.01,0.17-0.02,0.31-0.25,0.3c-0.71-0.04-1.43-0.08-2.14-0.11c-0.18-0.01-0.21-0.09-0.2-0.24
		c0.02-0.25,0.04-0.5,0.06-0.75c0.27-2.66,1.13-5.1,2.65-7.31c0.15-0.21,0.3-0.42,0.47-0.67c-0.09,0-0.14-0.01-0.19-0.01
		c-1.47,0.1-2.93,0.32-4.37,0.65c-0.14,0.03-0.24,0.12-0.34,0.22c-2.15,2.29-3.27,5.02-3.47,8.14c-0.02,0.24-0.07,0.3-0.31,0.29
		c-0.67-0.04-1.35-0.07-2.02-0.08c-0.23,0-0.28-0.08-0.27-0.3c0.08-1.14,0.25-2.26,0.55-3.36C18.89,56.9,19.33,55.82,19.91,54.71z
		 M86.72,47.08c0,4.51,0,9.02-0.01,13.53c0,0.29,0.05,0.4,0.37,0.39c0.87-0.02,1.75-0.01,2.62-0.01c1.88,0,3.35-1.48,3.35-3.35
		c0-7.03,0-14.06,0-21.09c0-1.86-1.47-3.33-3.33-3.34c-0.89,0-1.77,0.01-2.66-0.01c-0.29-0.01-0.36,0.08-0.36,0.37
		C86.72,38.08,86.72,42.58,86.72,47.08z M36.23,66.14c-8.12,0-16.23,0-24.35,0c-0.07,0-0.15,0-0.22,0
		c-0.21-0.02-0.23,0.07-0.14,0.24c0.36,0.68,0.82,1.27,1.4,1.77c1.17,1,2.55,1.38,4.06,1.38c12.81,0,25.61,0,38.42,0
		c0.49,0,0.99-0.02,1.48-0.12c1.81-0.38,3.15-1.4,4.02-3.03c0.1-0.18,0.06-0.25-0.14-0.23c-0.07,0.01-0.15,0-0.22,0
		C52.44,66.14,44.34,66.14,36.23,66.14z M31.19,34.25c0.18-0.02,0.47-0.05,0.76-0.1c1.34-0.25,2.56-0.8,3.78-1.39
		c2.24-1.1,3.92-2.77,5.13-4.94c0.05-0.1,0.18-0.2,0.11-0.31c-0.06-0.09-0.22-0.03-0.33-0.03c-1.3,0.09-2.57,0.32-3.78,0.8
		c-1.7,0.66-3.11,1.75-4.44,2.96c-0.72,0.65-1.39,1.37-1.81,2.25C30.28,34.16,30.22,34.2,31.19,34.25z M26.64,32.93
		c-0.02,0.59,0.01,0.61,0.45,0.51c0.24-0.05,0.46-0.15,0.69-0.23c0.13-0.05,0.19-0.14,0.24-0.27c0.23-0.66,0.58-1.26,1-1.82
		c1.25-1.66,2.84-2.95,4.58-4.07c0.3-0.19,0.5-0.41,0.61-0.76c0.22-0.68,0.44-1.36,0.59-2.06c0.04-0.2,0.05-0.3-0.21-0.21
		c-1.45,0.55-2.81,1.27-3.95,2.32c-1.39,1.28-2.46,2.82-3.31,4.51C26.98,31.56,26.7,32.29,26.64,32.93z"/>
	<path class="st2" d="M79.74,32.27c-0.51,0-1.01-0.01-1.52,0c-0.2,0-0.28-0.04-0.28-0.26c0.01-1.03,0.01-2.06,0-3.1
		c0-0.19,0.05-0.26,0.25-0.26c1.05,0.01,2.11,0.01,3.16,0c0.19,0,0.23,0.07,0.23,0.24c-0.01,1.03-0.01,2.06,0,3.1
		c0,0.23-0.09,0.28-0.3,0.28C80.77,32.27,80.25,32.27,79.74,32.27z"/>
	<path class="st2" d="M77.95,36.17c0-0.52,0.01-1.03,0-1.55c0-0.19,0.05-0.26,0.25-0.25c1.04,0.01,2.09,0.01,3.13,0
		c0.19,0,0.26,0.06,0.26,0.25c-0.01,1.04-0.01,2.09,0,3.13c0,0.18-0.06,0.24-0.24,0.23c-1.05-0.01-2.11-0.01-3.16,0
		c-0.21,0-0.24-0.09-0.24-0.26C77.96,37.21,77.95,36.69,77.95,36.17z"/>
	<path class="st0" d="M18.58,58.03c-0.3,1.1-0.47,2.22-0.55,3.36c-0.01,0.22,0.04,0.29,0.27,0.3c0.67,0.01,1.35,0.04,2.02,0.08
		c0.24,0.02,0.3-0.05,0.31-0.29c0.2-3.12,1.32-5.85,3.47-8.14c0.1-0.1,0.19-0.19,0.34-0.22c1.44-0.34,2.89-0.55,4.37-0.65
		c0.05,0,0.1,0,0.19,0.01c-0.17,0.25-0.32,0.46-0.47,0.67c-1.52,2.21-2.38,4.65-2.65,7.31c-0.03,0.25-0.04,0.5-0.06,0.75
		c-0.01,0.15,0.02,0.23,0.2,0.24c0.71,0.03,1.43,0.06,2.14,0.11c0.24,0.01,0.24-0.12,0.25-0.3c0.13-2.23,0.77-4.3,1.96-6.2
		c0.58-0.93,1.27-1.75,2.08-2.49c0.1-0.09,0.19-0.11,0.31-0.1c1.21,0.09,2.41,0.26,3.59,0.5c0.27,0.06,0.1,0.16,0.04,0.24
		c-0.76,0.96-1.4,2-1.91,3.12c-0.83,1.81-1.28,3.71-1.4,5.7c-0.01,0.25,0.07,0.3,0.3,0.31c0.62,0.01,1.24,0.04,1.86,0.07
		c0.41,0.02,0.41,0.02,0.44-0.4c0.09-1.42,0.41-2.79,0.94-4.1c0.6-1.46,1.44-2.76,2.52-3.91c0.11-0.12,0.2-0.21,0.4-0.14
		c2.81,1.03,5.35,2.47,7.4,4.7c1.13,1.24,1.98,2.64,2.43,4.27c0.11,0.38,0.11,0.38-0.27,0.38c-12.24,0-24.48,0-36.71,0
		c-0.41,0-0.41,0-0.3-0.4c0.48-1.73,1.41-3.19,2.63-4.47c1.43-1.51,3.4-2.9,5.27-3.8"/>
	<path class="st3" d="M64.6,57.95c0.04,0.99-0.11,1.95-0.32,2.91c-0.04,0.19-0.1,0.26-0.32,0.2c-0.67-0.2-1.34-0.38-2.01-0.55
		c-0.22-0.05-0.23-0.15-0.19-0.33c1.12-4.64-1.33-9.08-5.23-10.97c-0.35-0.17-0.35-0.17-0.35,0.21c0,0.38-0.01,0.76,0,1.14
		c0.01,0.18-0.06,0.24-0.24,0.24c-0.7-0.01-1.39-0.01-2.09,0c-0.21,0-0.27-0.08-0.26-0.28c0.01-0.65,0-1.31,0.01-1.96
		c0-0.19-0.04-0.28-0.25-0.3c-0.7-0.08-1.4-0.11-2.11-0.04c-0.18,0.02-0.19,0.12-0.19,0.25c0,0.67-0.01,1.35,0.01,2.02
		c0,0.23-0.04,0.31-0.29,0.31c-0.68-0.02-1.37-0.01-2.06,0c-0.19,0-0.26-0.05-0.25-0.25c0.01-0.45-0.01-0.91,0.01-1.36
		c0.01-0.3-0.09-0.31-0.32-0.2c-1.3,0.57-2.44,1.36-3.4,2.41c-0.16,0.17-0.26,0.21-0.45,0.04c-0.5-0.46-1.01-0.9-1.53-1.33
		c-0.17-0.14-0.17-0.22-0.02-0.39c2.13-2.3,4.75-3.68,7.87-4.03c3.82-0.43,7.19,0.65,10.04,3.24c2.14,1.95,3.41,4.39,3.85,7.25
		C64.6,56.77,64.63,57.36,64.6,57.95z"/>
</g>
<g>
	<path class="st4" d="M81.67,34.62c0-0.19-0.07-0.25-0.26-0.25c-1.04,0.01-2.09,0.01-3.13,0c-0.2,0-0.25,0.06-0.25,0.25
		c0.01,0.52,0,1.03,0,1.55c0,0.52,0.01,1.03,0,1.55c0,0.18,0.03,0.27,0.24,0.26c1.05-0.01,2.11-0.01,3.16,0
		c0.18,0,0.24-0.05,0.24-0.23C81.67,36.71,81.67,35.67,81.67,34.62z"/>
	<path class="st4" d="M81.67,28.9c0-0.17-0.04-0.24-0.23-0.24c-1.05,0.01-2.11,0.01-3.16,0c-0.2,0-0.25,0.07-0.25,0.26
		c0.01,1.03,0.01,2.06,0,3.1c0,0.22,0.08,0.27,0.28,0.26c0.51-0.01,1.01,0,1.52,0c0.52,0,1.03-0.01,1.55,0c0.21,0,0.3-0.04,0.3-0.28
		C81.66,30.97,81.67,29.94,81.67,28.9z"/>
	<path class="st0" d="M83.84,40.27H54.43c0,0.77,0,1.54,0,2.31c0,0.23,0.01,0.33-0.02,0.39c7.3,2.45,12.57,9.34,12.57,17.47
		c0,3.52-0.99,6.8-2.7,9.6c5.15,0,10.3,0,15.45,0c1.98,0,3.59-1.27,4.01-3.15c0.06-0.28,0.09-0.56,0.09-0.85
		C83.84,57.45,83.84,48.86,83.84,40.27z"/>
</g>
</svg>
