<?xml version="1.0" encoding="UTF-8"?>
<svg width="21px" height="22px" viewBox="0 0 21 22" version="1.1" xmlns="http://www.w3.org/2000/svg" xmlns:xlink="http://www.w3.org/1999/xlink">
    <!-- Generator: sketchtool 51.2 (57519) - http://www.bohemiancoding.com/sketch -->
    <title>DF025B8C-ED14-4B6E-8438-7F2CE2BAC589</title>
    <desc>Created with sketchtool.</desc>
    <defs></defs>
    <g id="Homepage-CHECK" stroke="none" stroke-width="1" fill="none" fill-rule="evenodd">
        <g id="M_homepage" transform="translate(-88.000000, -3398.000000)" fill="#212B35" fill-rule="nonzero">
            <g id="Group-10" transform="translate(0.000000, 3172.000000)">
                <g id="Group-9" transform="translate(15.000000, 40.000000)">
                    <g id="Group-8" transform="translate(31.000000, 186.000000)">
                        <g id="Group-20">
                            <g id="flag-diagonal-34" transform="translate(42.000000, 0.000000)">
                                <path d="M2.1,3.3 C1.8,2.8 1.2,2.6 0.8,2.9 C0.3,3.2 0.1,3.8 0.4,4.3 L9.9,20.8 C10.1,21.1 10.4,21.3 10.8,21.3 C11,21.3 11.1,21.3 11.3,21.2 C11.8,20.9 11.9,20.3 11.7,19.8 L2.1,3.3 Z" id="Shape"></path>
                                <path d="M20.7,2.3 C20.4,2 20,1.9 19.7,2 C18.5,2.3 16.7,1.9 14.7,1.5 C13.1,1.1 11.4,0.7 9.7,0.7 C7.4,0.7 5.6,1.5 4.2,3.1 L9.7,12.7 C9.9,12.6 10,12.5 10.1,12.3 C11.2,10.3 12.7,9.7 14.5,9.1 C16.7,8.3 19.2,7.3 20.8,3.4 C21.1,3 21,2.6 20.7,2.3 Z" id="Shape"></path>
                            </g>
                        </g>
                    </g>
                </g>
            </g>
        </g>
    </g>
</svg>