<?xml version="1.0" encoding="UTF-8"?>
<svg width="21px" height="24px" viewBox="0 0 21 24" version="1.1" xmlns="http://www.w3.org/2000/svg" xmlns:xlink="http://www.w3.org/1999/xlink">
    <!-- Generator: sketchtool 50.2 (55047) - http://www.bohemiancoding.com/sketch -->
    <title>3D43D727-201B-4068-B561-1DCAB3663904</title>
    <desc>Created with sketchtool.</desc>
    <defs></defs>
    <g id="Landingspagina-2" stroke="none" stroke-width="1" fill="none" fill-rule="evenodd" stroke-linecap="round" stroke-linejoin="round">
        <g id="101_Mobile-768-country-page" transform="translate(-480.000000, -2378.000000)" stroke="#212B35" stroke-width="2">
            <g id="Group-9" transform="translate(454.000000, 2024.000000)">
                <g id="Group" transform="translate(24.000000, 74.000000)">
                    <g id="Group-11" transform="translate(2.000000, 281.000000)">
                        <path d="M16,11 L20,11 L20,15 C20,16.1 19.1,17 18,17 L16,17" id="Shape"></path>
                        <polyline id="Shape" points="16 9.5 16 22 2 22 2 9.5"></polyline>
                        <path d="M14.5,5 C14.5,5 14.5,5 14.5,5 C14.2,2.2 11.9,0 9,0 C6.1,0 3.8,2.2 3.5,5 C3.5,5 3.5,5 3.5,5 C2,5 0.9,6.3 1,7.8 C1.1,9.1 2.3,10 3.6,10 L6,10 L6,14 C6,15.1 6.9,16 8,16 C9.1,16 10,15.1 10,14 L10,10 L14.4,10 C15.7,10 16.9,9.1 17,7.8 C17.1,6.3 16,5 14.5,5 Z" id="Shape"></path>
                    </g>
                </g>
            </g>
        </g>
    </g>
</svg>