<?xml version="1.0" encoding="utf-8"?>
<!-- Generator: Adobe Illustrator 19.2.1, SVG Export Plug-In . SVG Version: 6.00 Build 0)  -->
<svg version="1.1" id="Layer_1" xmlns="http://www.w3.org/2000/svg" xmlns:xlink="http://www.w3.org/1999/xlink" x="0px" y="0px"
	 viewBox="0 0 44.3 43.6" style="enable-background:new 0 0 44.3 43.6;" xml:space="preserve">
<style type="text/css">
	.st0{fill:#141111;}
</style>
<g>
	<path class="st0" d="M42.3,21.8c0,11-9.1,20-20.1,19.9c-11,0-20-9.1-19.9-20.1c0-11,9.1-20,20.1-19.9C33.4,1.8,42.4,10.8,42.3,21.8
		z M27.3,32c-6-1.3-3-4.5-2.7-6.8c0.3-2.1,1.7-4.2-0.2-6c-2.1-2-4.3-0.8-6.7,0.1c3.8,1.5,2.6,4.1,1.9,6.7
		C17.7,32.7,19.3,34.1,27.3,32z M24.7,14.9c1.4,0,2.4-0.8,2.4-2.3c0-1.3-1-2.1-2.2-2.2c-1.4-0.1-2.5,0.6-2.6,2.3
		C22.4,13.9,23.3,14.6,24.7,14.9z"/>
</g>
</svg>
