<?xml version="1.0" encoding="utf-8"?>
<!-- Generator: Adobe Illustrator 19.2.1, SVG Export Plug-In . SVG Version: 6.00 Build 0)  -->
<svg version="1.1" id="Layer_1" xmlns="http://www.w3.org/2000/svg" xmlns:xlink="http://www.w3.org/1999/xlink" x="0px" y="0px"
	 viewBox="0 0 9.8 15.1" style="enable-background:new 0 0 9.8 15.1;" xml:space="preserve">
<style type="text/css">
	.st0{opacity:0.8;}
	.st1{fill:none;}
	.st2{fill:#212B35;}
</style>
<g class="st0">
	<polygon class="st1" points="2.1,9.5 2.3,9.4 2.3,9.4 	"/>
	<path class="st2" d="M8,5.9L8,5.9L3.1,0.8c-0.5-0.6-1.4-0.6-2,0c-0.5,0.4-0.5,1.1,0,1.6l5.2,5.2c0.1,0.2,0.1,0.4,0,0.5l-5.1,4.8
		c-0.5,0.4-0.6,1.1-0.1,1.6c0.4,0.4,1.1,0.4,1.5,0l5.2-4.9l0,0l0,0l0.1-0.1l0,0l1-0.9c0.5-0.4,0.5-1.2,0-1.7L8,5.9z"/>
</g>
</svg>
