<?xml version="1.0" encoding="UTF-8"?>
<svg width="43px" height="42px" viewBox="0 0 43 42" version="1.1" xmlns="http://www.w3.org/2000/svg" xmlns:xlink="http://www.w3.org/1999/xlink">
    <!-- Generator: sketchtool 51.2 (57519) - http://www.bohemiancoding.com/sketch -->
    <title>D98AADB7-CDDD-4741-BB9F-A8C49E4E349E</title>
    <desc>Created with sketchtool.</desc>
    <defs></defs>
    <g id="Homepage-CHECK" stroke="none" stroke-width="1" fill="none" fill-rule="evenodd">
        <g id="D_homepage_XL" transform="translate(-912.000000, -4433.000000)" fill="#C4CDD5" fill-rule="nonzero">
            <g id="Group-30" transform="translate(-3.000000, 4288.000000)">
                <g id="Group-22" transform="translate(308.000000, 61.000000)">
                    <g id="Group-20-Copy-2" transform="translate(427.000000, 84.000000)">
                        <g id="Group-39">
                            <g id="Group-27-Copy-2">
                                <path d="M221.410036,15.3379791 L207.696468,14.1370014 L202.351872,1.34942623 C202.138897,0.839857808 201.55316,0.599421545 201.043591,0.812396811 C200.800754,0.913891366 200.607719,1.10702941 200.506355,1.34992155 L195.160573,14.1596552 L181.454727,15.3405969 C180.904482,15.388008 180.496853,15.8725047 180.544264,16.4227507 C180.566375,16.6793658 180.686648,16.9175539 180.880024,17.0876887 L191.301659,26.2567742 L188.176641,39.8613726 C188.052999,40.3996394 188.389119,40.9362222 188.927386,41.0598638 C189.182594,41.1184859 189.450615,41.0746664 189.673865,40.9378198 L201.428521,33.7325219 L213.186955,40.9401361 C213.657819,41.2287634 214.273508,41.0810315 214.562135,40.6101676 C214.698741,40.3873101 214.742656,40.1198228 214.684476,39.8649861 L211.577688,26.2567742 L221.984025,17.0843487 C222.398339,16.7191609 222.438164,16.0872496 222.072976,15.6729353 C221.903194,15.4803133 221.665824,15.36038 221.410036,15.3379791 Z" id="Shape-Copy-7"></path>
                            </g>
                        </g>
                    </g>
                </g>
            </g>
        </g>
    </g>
</svg>